<?xml version="1.0" standalone="no"?>
<!DOCTYPE svg PUBLIC "-//W3C//DTD SVG 1.1//EN" "http://www.w3.org/Graphics/SVG/1.1/DTD/svg11.dtd">
<svg xmlns="http://www.w3.org/2000/svg"><metadata>This SVG WebFont was generated by YouWorkForThem.
Copyright (c) 2019 by Fateh.Lab. All rights reserved.</metadata><defs><font horiz-adv-x="880" id="ywftsvg"><font-face ascent="1536" bbox="-229 -479 2144 1923" cap-height="1397" descent="-512" font-family="" font-stretch="normal" font-weight="400" panose-1="0 0 0 0 0 0 0 0 0 0" underline-position="0" underline-thickness="0" unicode-range="U+0020-FB02" units-per-em="2048" x-height="1397"/><missing-glyph horiz-adv-x="204"/><glyph glyph-name=".notdef" horiz-adv-x="204"/><glyph glyph-name="glyph1" horiz-adv-x="0"/><glyph glyph-name="glyph2" horiz-adv-x="681"/><glyph glyph-name="space" horiz-adv-x="204" unicode=" "/><glyph d="M0 1397h360v-443l-30 -514h-301l-29 514v443zM0 0v360h360v-360h-360z" glyph-name="exclam" horiz-adv-x="440" unicode="!"/><glyph d="M438 1397h246v-146h-100v-61h215v-361h-361v568zM0 1397h246v-146h-101v-61h215v-361h-360v568z" glyph-name="quotedbl" horiz-adv-x="878" unicode="&quot;"/><glyph d="M547 1397h299v-406l117 -30v-312l-117 31v-160l117 -31v-311l-117 33v-211h-299v291l-131 35v-326h-299v406l-117 30v312l117 -31v160l-117 30v312l117 -33v211h299v-291l131 -35v326zM547 600v162l-131 35v-162z" glyph-name="numbersign" horiz-adv-x="1042" unicode="#"/><glyph d="M360 1077v-127q0 -43 27 -59l352 -201q35 -25 48.5 -47t13.5 -65v-342q0 -104 -74 -178t-178 -76v-115h-299v115q-102 2 -176 75.5t-74 178.5v268h360v-182q0 -25 23 -25h33q23 0 22 25v135q0 43 -26 61l-351 191q-37 23 -49 45t-12 65v342q0 104 73.5 178t176.5 76v115 h299v-115q104 -2 178 -75.5t74 -178.5v-264h-363v180q0 23 -22 23h-33q-23 0 -23 -23z" glyph-name="dollar" unicode="$"/><glyph d="M745 1397h299l-282 -1397h-301zM569 1184v-479q0 -88 -62.5 -150.5t-150.5 -62.5h-145q-88 0 -149.5 62t-61.5 151v479q0 88 61.5 150.5t149.5 62.5h145q88 0 150.5 -62.5t62.5 -150.5zM252 1112v-336q0 -18 18 -18h29q18 0 18 18v336q0 20 -18 21h-29q-18 -1 -18 -21z M1507 692v-479q0 -88 -62.5 -150.5t-150.5 -62.5h-145q-88 0 -149.5 62.5t-61.5 150.5v479q0 88 61.5 150.5t149.5 62.5h145q88 0 150.5 -62.5t62.5 -150.5zM1190 621v-336q0 -18 18 -19h29q18 0 18 19v336q0 18 -18 18h-29q-18 0 -18 -18z" glyph-name="percent" horiz-adv-x="1587" unicode="%"/><glyph d="M438 823v178h363v-178h63v-284h-63v-322q0 -104 -75 -179t-179 -75h-295q-104 0 -178 75t-74 179v193v6v4v4q0 49 3 80t14.5 68.5t37 64.5t66.5 41v6q-41 14 -67.5 39t-37 64.5t-12.5 67.5t-4 81v207q0 104 73.5 179t178.5 75h549v-316h-418q-23 0 -23 -22v-213 q0 -23 23 -23h55zM360 514v-211q0 -23 23 -22h33q23 0 22 22v236h-55q-23 0 -23 -25z" glyph-name="ampersand" horiz-adv-x="944" unicode="&amp;"/><glyph d="M0 1397h299v-467h-299v467z" glyph-name="quotesingle" horiz-adv-x="378" unicode="'"/><glyph d="M485 -266q-209 0 -347 161.5t-138 374.5v856q0 213 138 375t347 162v-297q-84 0 -136 -74.5t-52 -165.5v-856q0 -90 52 -164.5t136 -74.5v-297z" glyph-name="parenleft" horiz-adv-x="565" unicode="("/><glyph d="M0 -266v297q84 0 136 74.5t52 164.5v856q0 90 -52 165t-136 75v297q209 0 347 -162t138 -375v-856q0 -213 -138 -374.5t-347 -161.5z" glyph-name="parenright" horiz-adv-x="565" unicode=")"/><glyph d="M307 1397h205v-209l141 141l99 -98l-142 -141h209v-205h-209l142 -142l-99 -98l-141 141v-208h-205v208l-141 -141l-98 98l141 142h-209v205h209l-141 141l98 98l141 -141v209z" glyph-name="asterisk" horiz-adv-x="899" unicode="*"/><glyph d="M627 848v-299h-164v-193h-299v193h-164v299h164v192h299v-192h164z" glyph-name="plus" horiz-adv-x="706" unicode="+"/><glyph d="M115 -207v146h100v61h-215v360h360v-567h-245z" glyph-name="comma" horiz-adv-x="440" unicode=","/><glyph d="M559 848v-299h-559v299h559z" glyph-name="hyphen" horiz-adv-x="638" unicode="-"/><glyph d="M0 360h360v-360h-360v360z" glyph-name="period" horiz-adv-x="440" unicode="."/><glyph d="M285 1397h299l-285 -1397h-299z" glyph-name="slash" horiz-adv-x="663" unicode="/"/><glyph d="M438 1077q0 23 -22 23h-33q-23 0 -23 -23v-755q0 -25 23 -25h33q23 0 22 25v755zM801 236q0 -104 -75 -179t-179 -75h-295q-104 0 -178 74.5t-74 179.5v925q0 104 73.5 179t178.5 75h295q104 0 179 -74.5t75 -179.5v-925z" glyph-name="zero" unicode="0"/><glyph d="M285 762l-92 -199l-263 135l369 699h346v-1397h-360v762z" glyph-name="one" horiz-adv-x="724" unicode="1"/><glyph d="M0 578q0 78 68 112l342 168q14 8 20 16.5t7 14.5t1 29v159q0 23 -22 23h-33q-23 0 -23 -23v-184h-360v268q0 104 73.5 179t178.5 75h295q104 0 179 -74.5t75 -179.5v-397q0 -59 -20.5 -91t-75.5 -65l-345 -180v-68h441v-360h-801v578z" glyph-name="two" unicode="2"/><glyph d="M225 842h191q23 0 22 22v213q0 23 -22 23h-33q-23 0 -23 -23v-184h-360v268q0 104 73.5 179t178.5 75h295q104 0 179 -74.5t75 -179.5v-207q-2 -55 -5 -80.5t-13.5 -66.5t-37 -66.5t-67.5 -40.5v-4q43 -14 69.5 -41.5t37 -70.5t13.5 -73t3 -83v-192q0 -104 -75 -179 t-179 -75h-295q-104 0 -178 74.5t-74 179.5v268h360v-182q0 -25 23 -25h33q23 0 22 25v210q0 23 -22 23h-191v287z" glyph-name="three" unicode="3"/><glyph d="M467 168h-467v324l332 905h467v-918h69v-311h-69v-168h-332v168zM467 963l-164 -484h164v484z" glyph-name="four" horiz-adv-x="948" unicode="4"/><glyph d="M803 236q0 -104 -75 -179t-179 -75h-297q-104 0 -178 74.5t-74 179.5v194h360v-108q0 -25 23 -25h37q23 0 22 25v221q0 23 -22 22h-37q-23 0 -23 -22v-37h-360v891h803v-361h-443v-174q43 18 97 19h92q104 0 179 -74t75 -178v-393z" glyph-name="five" horiz-adv-x="882" unicode="5"/><glyph d="M803 236q0 -104 -75 -179t-179 -75h-297q-104 0 -178 74.5t-74 179.5v925q0 104 73.5 179t178.5 75h297q104 0 179 -74.5t75 -179.5v-194h-361v110q0 23 -24 23h-35q-23 0 -23 -23v-215q43 18 97 19h92q104 0 179 -74t75 -178v-393zM360 322q0 -25 23 -25h35q25 0 24 25 v221q0 23 -24 22h-35q-23 0 -23 -22v-221z" glyph-name="six" horiz-adv-x="882" unicode="6"/><glyph d="M23 0l339 1085h-362v312h821l-436 -1397h-362z" glyph-name="seven" horiz-adv-x="890" unicode="7"/><glyph d="M416 842q23 0 22 22v213q0 23 -22 23h-33q-23 0 -23 -23v-213q0 -23 23 -22h33zM801 954q-2 -55 -5 -80.5t-13.5 -66.5t-37 -66.5t-67.5 -40.5v-4q76 -27 98.5 -89t24.5 -165v-4v-6v-4v-192q0 -104 -75 -179t-179 -75h-295q-104 0 -178 74.5t-74 179.5v192v4v6v4 q0 66 5 106t34 85t82 63v4q-41 14 -67.5 40t-37 66t-12.5 67.5t-4 80.5v207q0 104 73.5 179t178.5 75h295q104 0 179 -74.5t75 -179.5v-207zM416 297q23 0 22 25v210q0 23 -22 23h-33q-23 0 -23 -23v-210q0 -25 23 -25h33z" glyph-name="eight" horiz-adv-x="878" unicode="8"/><glyph d="M0 1161q0 104 73.5 179t178.5 75h297q104 0 179 -74.5t75 -179.5v-925q0 -104 -75 -179t-179 -75h-297q-104 0 -178 74.5t-74 179.5v194h360v-108q0 -25 23 -25h35q25 0 24 25v213q-45 -18 -98 -19h-92q-104 0 -178 74t-74 178v393zM442 1077q0 23 -24 23h-35 q-23 0 -23 -23v-223q0 -23 23 -23h35q25 0 24 23v223z" glyph-name="nine" horiz-adv-x="882" unicode="9"/><glyph d="M0 360h360v-360h-360v360zM0 1188h360v-361h-360v361z" glyph-name="colon" horiz-adv-x="440" unicode=":"/><glyph d="M0 1188h360v-361h-360v361zM115 -207v146h100v61h-215v360h360v-567h-245z" glyph-name="semicolon" horiz-adv-x="440" unicode=";"/><glyph d="M0 860l815 293v-332l-377 -121v-4l377 -121v-331l-815 293v323z" glyph-name="less" horiz-adv-x="894" unicode="&lt;"/><glyph d="M559 647v-266h-559v266h559zM559 1016v-266h-559v266h559z" glyph-name="equal" horiz-adv-x="638" unicode="="/><glyph d="M815 860v-323l-815 -293v331l377 121v4l-377 121v332z" glyph-name="greater" horiz-adv-x="894" unicode=">"/><glyph d="M143 360h361v-360h-361v360zM143 555q-2 76 76 143l172 144q47 47 47 100v135q0 23 -22 23h-33q-23 0 -23 -23v-184h-360v268q0 104 73.5 179t178.5 75h295q104 0 179 -74.5t75 -179.5v-319q0 -47 -10.5 -70.5t-42.5 -54.5l-244 -223v-82h-361v143z" glyph-name="question" unicode="?"/><glyph d="M549 932q0 20 -21 20h-26q-20 0 -21 -20v-98h-299v170q0 86 61.5 148t149.5 62h244q88 0 149.5 -62t61.5 -148v-682q0 -27 28.5 -27t28.5 27v761q0 78 -55 132.5t-133 54.5h-406q-78 0 -132 -55.5t-54 -131.5v-770q0 -76 54 -131t132 -55h555v-127h-555q-129 0 -220 92 t-91 221v770q0 129 91 221.5t220 92.5h406q129 0 221 -92.5t92 -221.5v-761q0 -57 -40 -97.5t-97 -40.5h-76q-43 0 -62.5 1t-49 9.5t-47 30t-29.5 56.5q-33 -96 -142 -97h-94q-88 0 -149.5 61.5t-61.5 147.5v230q0 86 61.5 134t149.5 48h156v127zM481 582v-148q0 -18 21 -18 h26q20 0 21 18v148q0 18 -21 18h-26q-21 0 -21 -18z" glyph-name="at" horiz-adv-x="1110" unicode="@"/><glyph d="M838 0h-367l-10 119h-142l-10 -119h-366l276 1397h342zM346 430h90l-43 500h-6z" glyph-name="A" horiz-adv-x="856" unicode="A"/><glyph d="M360 555v-240h56q23 0 22 23v194q0 23 -22 23h-56zM801 969q-2 -55 -4 -83t-12.5 -72t-37 -71.5t-69.5 -42.5v-4q43 -14 69.5 -41.5t37 -71.5t12.5 -72t4 -83v-174q0 -104 -75 -179t-179 -75h-547v1397h547q104 0 179 -75t75 -179v-174zM360 1081v-239h56q23 0 22 22v195 q0 23 -22 22h-56z" glyph-name="B" horiz-adv-x="878" unicode="B"/><glyph d="M801 504v-268q0 -104 -75 -179t-179 -75h-295q-104 0 -178 74.5t-74 179.5v925q0 104 73.5 179t178.5 75h295q104 0 179 -74.5t75 -179.5v-264h-363v180q0 23 -22 23h-33q-23 0 -23 -23v-755q0 -25 23 -25h33q23 0 22 25v182h363z" glyph-name="C" unicode="C"/><glyph d="M547 1397q104 0 178 -75t74 -179v-889q0 -104 -74 -179t-178 -75h-547v1397h547zM360 315h56q23 0 22 23v721q0 23 -22 22h-56v-766z" glyph-name="D" unicode="D"/><glyph d="M0 1397h739v-316h-379v-225h304v-315h-304v-226h379v-315h-739v1397z" glyph-name="E" horiz-adv-x="821" unicode="E"/><glyph d="M0 0v1397h694v-316h-334v-284h258v-316h-258v-481h-360z" glyph-name="F" horiz-adv-x="774" unicode="F"/><glyph d="M809 236q0 -104 -75 -179t-179 -75h-303q-104 0 -178 74.5t-74 179.5v925q0 104 73.5 179t178.5 75h303q104 0 179 -74.5t75 -179.5v-264h-360v180q0 23 -25 23h-41q-23 0 -23 -23v-755q0 -25 23 -25h41q25 0 25 25v262h-46v233h406v-581z" glyph-name="G" horiz-adv-x="888" unicode="G"/><glyph d="M0 1397h360v-541h89v541h360v-1397h-360v541h-89v-541h-360v1397z" glyph-name="H" horiz-adv-x="888" unicode="H"/><glyph d="M0 1397h360v-1397h-360v1397z" glyph-name="I" horiz-adv-x="440" unicode="I"/><glyph d="M223 -18q-109 0 -185.5 82.5t-98.5 185.5l297 143q12 -45 47 -47q33 0 32 31v1020h361v-1161q0 -104 -75 -179t-179 -75h-199z" glyph-name="J" horiz-adv-x="755" unicode="J"/><glyph d="M0 1397h360v-580h7l135 580h372l-182 -699l182 -698h-372l-135 580h-7v-580h-360v1397z" glyph-name="K" horiz-adv-x="942" unicode="K"/><glyph d="M0 1397h360v-1082h326v-315h-686v1397z" glyph-name="L" horiz-adv-x="765" unicode="L"/><glyph d="M565 707h6l97 690h469v-1397h-361v854h-6l-84 -854h-235l-84 854h-7v-854h-360v1397h469z" glyph-name="M" horiz-adv-x="1216" unicode="M"/><glyph d="M0 1397h317l150 -553h6v553h318v-1397h-320l-145 555h-7v-555h-319v1397z" glyph-name="N" horiz-adv-x="870" unicode="N"/><glyph d="M360 1077v-755q0 -25 23 -25h33q23 0 22 25v755q0 23 -22 23h-33q-23 0 -23 -23zM801 1161v-925q0 -104 -75 -179t-179 -75h-295q-104 0 -178 74.5t-74 179.5v925q0 104 73.5 179t178.5 75h295q104 0 179 -75t75 -179z" glyph-name="O" unicode="O"/><glyph d="M516 1397q104 0 179 -75t75 -179v-451q0 -104 -74.5 -178t-179.5 -74h-172v-440h-344v1397h516zM344 756h57q23 0 23 22v281q0 23 -23 22h-57v-325z" glyph-name="P" horiz-adv-x="849" unicode="P"/><glyph d="M719 51l133 -88l-176 -237l-348 256h-76q-104 0 -179 74.5t-75 179.5v925q0 104 74.5 179t179.5 75h293q104 0 179 -74.5t75 -179.5v-925q0 -111 -80 -185zM358 1077v-755q0 -25 23 -25h35q23 0 22 25v755q0 23 -22 23h-35q-23 0 -23 -23z" glyph-name="Q" horiz-adv-x="888" unicode="Q"/><glyph d="M801 801q0 -115 -19.5 -145.5t-103.5 -45.5v-8q84 -14 103.5 -45t19.5 -145v-412h-363v420q0 25 -22 24h-33q-23 0 -23 -24v-420h-360v1397h547q104 0 179 -74t75 -178v-344zM360 711h56q23 0 22 22v326q0 23 -22 22h-56v-370z" glyph-name="R" unicode="R"/><glyph d="M360 1077v-127q0 -43 27 -59l352 -201q35 -25 48.5 -47t13.5 -65v-342q0 -104 -75 -179t-179 -75h-295q-104 0 -178 74.5t-74 179.5v268h360v-182q0 -25 23 -25h33q23 0 22 25v135q0 43 -26 61l-351 191q-37 23 -49 45t-12 65v342q0 104 73.5 179t178.5 75h295 q104 0 179 -74.5t75 -179.5v-264h-363v180q0 23 -22 23h-33q-23 0 -23 -23z" glyph-name="S" unicode="S"/><glyph d="M219 1036h-219v361h799v-361h-219v-1036h-361v1036z" glyph-name="T" horiz-adv-x="878" unicode="T"/><glyph d="M438 324v1073h363v-1157q0 -104 -75 -179t-179 -75h-295q-104 0 -178 74.5t-74 179.5v1157h360v-1073q0 -23 23 -23h33q22 0 22 23z" glyph-name="U" unicode="U"/><glyph d="M0 1397h399l60 -813h6l61 813h400l-234 -1397h-461z" glyph-name="V" horiz-adv-x="997" unicode="V"/><glyph d="M358 1397v-783h7l116 783h310l114 -783h6v783h361l-60 -1397h-469l-104 616h-6l-107 -616h-469l-57 1397h358z" glyph-name="W" horiz-adv-x="1351" unicode="W"/><glyph d="M680 698l184 -698h-375l-59 494h-6l-59 -494h-375l184 698l-184 699h375l59 -494h6l59 494h375z" glyph-name="X" horiz-adv-x="935" unicode="X"/><glyph d="M258 430l-270 967h368l80 -520h6l80 520h369l-273 -967v-430h-360v430z" glyph-name="Y" horiz-adv-x="962" unicode="Y"/><glyph d="M403 360h359v-360h-762v360l356 676h-356v361h762v-361z" glyph-name="Z" horiz-adv-x="843" unicode="Z"/><glyph d="M0 1663h485v-297h-188v-1335h188v-297h-485v1929z" glyph-name="bracketleft" horiz-adv-x="565" unicode="["/><glyph d="M299 1397l285 -1397h-299l-285 1397h299z" glyph-name="backslash" horiz-adv-x="663" unicode="\"/><glyph d="M485 1663v-1929h-485v297h188v1335h-188v297h485z" glyph-name="bracketright" horiz-adv-x="565" unicode="]"/><glyph d="M180 1397h389l181 -740h-299l-74 351h-6l-72 -351h-299z" glyph-name="asciicircum" horiz-adv-x="829" unicode="^"/><glyph d="M762 299v-299h-762v299h762z" glyph-name="underscore" horiz-adv-x="841" unicode="_"/><glyph d="M422 1049h-242q-92 176 -180 348h360q10 -57 31 -173t31 -175z" glyph-name="grave" horiz-adv-x="481" unicode="`"/><glyph d="M838 0h-367l-10 119h-142l-10 -119h-366l276 1397h342zM346 430h90l-43 500h-6z" glyph-name="a" horiz-adv-x="856" unicode="a"/><glyph d="M360 555v-240h56q23 0 22 23v194q0 23 -22 23h-56zM801 969q-2 -55 -4 -83t-12.5 -72t-37 -71.5t-69.5 -42.5v-4q43 -14 69.5 -41.5t37 -71.5t12.5 -72t4 -83v-174q0 -104 -75 -179t-179 -75h-547v1397h547q104 0 179 -75t75 -179v-174zM360 1081v-239h56q23 0 22 22v195 q0 23 -22 22h-56z" glyph-name="b" horiz-adv-x="878" unicode="b"/><glyph d="M801 504v-268q0 -104 -75 -179t-179 -75h-295q-104 0 -178 74.5t-74 179.5v925q0 104 73.5 179t178.5 75h295q104 0 179 -74.5t75 -179.5v-264h-363v180q0 23 -22 23h-33q-23 0 -23 -23v-755q0 -25 23 -25h33q23 0 22 25v182h363z" glyph-name="c" unicode="c"/><glyph d="M547 1397q104 0 178 -75t74 -179v-889q0 -104 -74 -179t-178 -75h-547v1397h547zM360 315h56q23 0 22 23v721q0 23 -22 22h-56v-766z" glyph-name="d" unicode="d"/><glyph d="M0 1397h739v-316h-379v-225h304v-315h-304v-226h379v-315h-739v1397z" glyph-name="e" horiz-adv-x="821" unicode="e"/><glyph d="M0 0v1397h694v-316h-334v-284h258v-316h-258v-481h-360z" glyph-name="f" horiz-adv-x="774" unicode="f"/><glyph d="M809 236q0 -104 -75 -179t-179 -75h-303q-104 0 -178 74.5t-74 179.5v925q0 104 73.5 179t178.5 75h303q104 0 179 -74.5t75 -179.5v-264h-360v180q0 23 -25 23h-41q-23 0 -23 -23v-755q0 -25 23 -25h41q25 0 25 25v262h-46v233h406v-581z" glyph-name="g" horiz-adv-x="888" unicode="g"/><glyph d="M0 1397h360v-541h89v541h360v-1397h-360v541h-89v-541h-360v1397z" glyph-name="h" horiz-adv-x="888" unicode="h"/><glyph d="M0 1397h360v-1397h-360v1397z" glyph-name="i" horiz-adv-x="440" unicode="i"/><glyph d="M223 -18q-109 0 -185.5 82.5t-98.5 185.5l297 143q12 -45 47 -47q33 0 32 31v1020h361v-1161q0 -104 -75 -179t-179 -75h-199z" glyph-name="j" horiz-adv-x="755" unicode="j"/><glyph d="M0 1397h360v-580h7l135 580h372l-182 -699l182 -698h-372l-135 580h-7v-580h-360v1397z" glyph-name="k" horiz-adv-x="942" unicode="k"/><glyph d="M0 1397h360v-1082h326v-315h-686v1397z" glyph-name="l" horiz-adv-x="765" unicode="l"/><glyph d="M565 707h6l97 690h469v-1397h-361v854h-6l-84 -854h-235l-84 854h-7v-854h-360v1397h469z" glyph-name="m" horiz-adv-x="1216" unicode="m"/><glyph d="M0 1397h317l150 -553h6v553h318v-1397h-320l-145 555h-7v-555h-319v1397z" glyph-name="n" horiz-adv-x="870" unicode="n"/><glyph d="M360 1077v-755q0 -25 23 -25h33q23 0 22 25v755q0 23 -22 23h-33q-23 0 -23 -23zM801 1161v-925q0 -104 -75 -179t-179 -75h-295q-104 0 -178 74.5t-74 179.5v925q0 104 73.5 179t178.5 75h295q104 0 179 -75t75 -179z" glyph-name="o" unicode="o"/><glyph d="M516 1397q104 0 179 -75t75 -179v-451q0 -104 -74.5 -178t-179.5 -74h-172v-440h-344v1397h516zM344 756h57q23 0 23 22v281q0 23 -23 22h-57v-325z" glyph-name="p" horiz-adv-x="849" unicode="p"/><glyph d="M719 51l133 -88l-176 -237l-348 256h-76q-104 0 -179 74.5t-75 179.5v925q0 104 74.5 179t179.5 75h293q104 0 179 -74.5t75 -179.5v-925q0 -111 -80 -185zM358 1077v-755q0 -25 23 -25h35q23 0 22 25v755q0 23 -22 23h-35q-23 0 -23 -23z" glyph-name="q" horiz-adv-x="888" unicode="q"/><glyph d="M801 801q0 -115 -19.5 -145.5t-103.5 -45.5v-8q84 -14 103.5 -45t19.5 -145v-412h-363v420q0 25 -22 24h-33q-23 0 -23 -24v-420h-360v1397h547q104 0 179 -74t75 -178v-344zM360 711h56q23 0 22 22v326q0 23 -22 22h-56v-370z" glyph-name="r" unicode="r"/><glyph d="M360 1077v-127q0 -43 27 -59l352 -201q35 -25 48.5 -47t13.5 -65v-342q0 -104 -75 -179t-179 -75h-295q-104 0 -178 74.5t-74 179.5v268h360v-182q0 -25 23 -25h33q23 0 22 25v135q0 43 -26 61l-351 191q-37 23 -49 45t-12 65v342q0 104 73.5 179t178.5 75h295 q104 0 179 -74.5t75 -179.5v-264h-363v180q0 23 -22 23h-33q-23 0 -23 -23z" glyph-name="s" unicode="s"/><glyph d="M219 1036h-219v361h799v-361h-219v-1036h-361v1036z" glyph-name="t" horiz-adv-x="878" unicode="t"/><glyph d="M438 324v1073h363v-1157q0 -104 -75 -179t-179 -75h-295q-104 0 -178 74.5t-74 179.5v1157h360v-1073q0 -23 23 -23h33q22 0 22 23z" glyph-name="u" unicode="u"/><glyph d="M0 1397h399l60 -813h6l61 813h400l-234 -1397h-461z" glyph-name="v" horiz-adv-x="997" unicode="v"/><glyph d="M358 1397v-783h7l116 783h310l114 -783h6v783h361l-60 -1397h-469l-104 616h-6l-107 -616h-469l-57 1397h358z" glyph-name="w" horiz-adv-x="1351" unicode="w"/><glyph d="M680 698l184 -698h-375l-59 494h-6l-59 -494h-375l184 698l-184 699h375l59 -494h6l59 494h375z" glyph-name="x" horiz-adv-x="935" unicode="x"/><glyph d="M258 430l-270 967h368l80 -520h6l80 520h369l-273 -967v-430h-360v430z" glyph-name="y" horiz-adv-x="962" unicode="y"/><glyph d="M403 360h359v-360h-762v360l356 676h-356v361h762v-361z" glyph-name="z" horiz-adv-x="843" unicode="z"/><glyph d="M0 848h100q14 0 25.5 10t11.5 27v241q0 213 138.5 375t349.5 162v-297q-86 0 -138.5 -74.5t-52.5 -165.5v-284q0 -61 -32.5 -101.5t-94.5 -40.5v-4q63 0 95 -40t32 -103v-283q0 -90 52.5 -164.5t138.5 -74.5v-297q-211 0 -349.5 161.5t-138.5 374.5v242q0 16 -11 26.5 t-26 10.5h-100v299z" glyph-name="braceleft" horiz-adv-x="704" unicode="{"/><glyph d="M0 -295v1987h299v-1987h-299z" glyph-name="bar" horiz-adv-x="378" unicode="|"/><glyph d="M625 848v-299h-101q-16 0 -26.5 -10.5t-10.5 -26.5v-242q0 -213 -138 -374.5t-349 -161.5v297q86 0 138 74.5t52 164.5v283q0 63 32 103t95 40v4q-61 0 -94 40t-33 102v284q0 90 -52 165t-138 75v297q211 0 349 -162t138 -375v-241q0 -16 10.5 -26.5t26.5 -10.5h101z" glyph-name="braceright" horiz-adv-x="704" unicode="}"/><glyph d="M0 500v309q98 80 170 91t117 -18.5t89 -58t115.5 -17.5t170.5 91v-309q-72 -57 -130.5 -79t-96.5 -13.5t-71.5 29t-66.5 41t-71 28.5t-96 -13.5t-130 -80.5z" glyph-name="asciitilde" horiz-adv-x="741" unicode="~"/><glyph d="M0 1397h360v-361h-360v361zM0 0v442l29 514h301l30 -514v-442h-360z" glyph-name="exclamdown" horiz-adv-x="440" unicode="¡"/><glyph d="M799 504v-268q0 -104 -73 -178t-177 -76v-115h-299v115q-104 2 -177 75.5t-73 178.5v925q0 104 72.5 178t177.5 76v115h299v-115q104 -2 177 -75.5t73 -178.5v-264h-361v180q0 23 -22 23h-33q-23 0 -23 -23v-755q0 -25 23 -25h33q23 0 22 25v182h361z" glyph-name="cent" horiz-adv-x="878" unicode="¢"/><glyph d="M84 315v234h-84v115h84v516q0 104 74.5 179t179.5 75h295q104 0 178 -75t74 -179v-265h-361v179q0 25 -22 24h-33q-23 0 -23 -24v-430h439v-115h-439v-234h439v-315h-885v315h84z" glyph-name="sterling" horiz-adv-x="964" unicode="£"/><glyph d="M651 938v-479q0 -29 -4 -43l86 -150l-176 -102l-53 92q-35 -10 -66 -10h-145q-29 0 -64 10l-53 -92l-176 102l86 150q-4 14 -4 43v479q0 29 4 43l-86 149l176 103l53 -92q35 10 64 10h145q31 0 66 -10l53 92l176 -103l-86 -149q4 -14 4 -43zM334 866v-336q0 -18 18 -18 h29q18 0 18 18v336q0 18 -18 19h-29q-18 -1 -18 -19z" glyph-name="currency" horiz-adv-x="813" unicode="¤"/><glyph d="M240 543l-13 45h-223v112h191l-195 697h369l80 -537h6l80 537h368l-194 -697h190v-112h-223l-12 -45h235v-113h-268v-430h-361v430h-266v113h236z" glyph-name="yen" horiz-adv-x="983" unicode="¥"/><glyph d="M0 -295v940h299v-940h-299zM0 1692h299v-940h-299v940z" glyph-name="brokenbar" horiz-adv-x="378" unicode="¦"/><glyph d="M801 561v-737q0 -104 -75 -179t-179 -75h-295q-104 0 -178 74.5t-74 179.5v268h360v-184q0 -23 23 -23h33q23 0 22 23v137q0 27 -4 37t-22 22l-351 193q-35 23 -48 45.5t-13 65.5v735q0 104 73.5 179t178.5 75h295q104 0 179 -75t75 -179v-264h-363v180q0 23 -22 22h-33 q-23 0 -23 -22v-127q0 -43 27 -60l352 -200q35 -25 48.5 -47.5t13.5 -63.5zM360 588v-109q0 -43 27 -61l51 -29v111q0 27 -4 37t-22 22z" glyph-name="section" unicode="§"/><glyph d="M0 1038v361h360v-361h-360zM438 1038v361h361v-361h-361z" glyph-name="dieresis" horiz-adv-x="878" unicode="¨"/><glyph d="M848 616v-223q0 -86 -61.5 -147.5t-149.5 -61.5h-246q-86 0 -147.5 61.5t-61.5 147.5v611q0 88 61.5 149t147.5 61h246q88 0 149.5 -61t61.5 -149v-220h-299v150q0 18 -19 18h-30q-18 0 -19 -18v-471q0 -18 19 -19h30q18 0 19 19v153h299zM311 0q-129 0 -220 92t-91 221 v770q0 129 91 221.5t220 92.5h406q129 0 221 -92.5t92 -221.5v-770q0 -129 -92 -221t-221 -92h-406zM905 1083q0 78 -55 132.5t-133 54.5h-406q-78 0 -132 -55.5t-54 -131.5v-770q0 -76 54 -131t132 -55h406q78 0 133 55.5t55 130.5v770z" glyph-name="copyright" horiz-adv-x="1110" unicode="©"/><glyph d="M365 932q0 20 -19 20h-29q-18 0 -18 -20v-98h-299v170q0 86 61.5 148t147.5 62h246q86 0 147.5 -62t61.5 -148v-682q0 -25 28 -29h33v-109h-92q-55 0 -82 3t-58.5 24.5t-46.5 69.5q-33 -96 -141 -97h-96q-86 0 -147.5 61.5t-61.5 147.5v230q0 86 60.5 134t148.5 48h156 v127zM299 582v-148q0 -18 18 -18h29q18 0 19 18v148q0 18 -19 18h-29q-18 0 -18 -18z" glyph-name="ordfeminine" horiz-adv-x="804" unicode="ª"/><glyph d="M920 1397l-545 -699l545 -698h-375l-545 698l545 699h375zM1384 1397l-544 -699l544 -698h-376l-545 698l545 699h376z" glyph-name="guillemotleft" horiz-adv-x="1464" unicode="«"/><glyph d="M0 299h762v-401h-299v102h-463v299z" glyph-name="logicalnot" horiz-adv-x="841" unicode="¬"/><glyph d="M559 848v-299h-559v299h559z" glyph-name="uni00AD" horiz-adv-x="638" unicode="­"/><glyph d="M272 1167q0 -27 -4 -32t-26 -9q23 -4 26.5 -10t3.5 -33v-86h-75v88q0 6 -7 7h-6q-4 0 -4 -7v-88h-78v295h117q23 0 38 -15t15 -38v-72zM268 893h-159q-45 0 -77 31.5t-32 76.5v287q0 45 31.5 77t77.5 32h159q45 0 77 -32t32 -77v-287q0 -45 -32 -76.5t-77 -31.5z M332 1001v287q0 27 -18.5 46.5t-45.5 19.5h-159q-27 0 -46.5 -19.5t-19.5 -46.5v-287q0 -27 19.5 -45t46.5 -18h159q27 0 45.5 18t18.5 45zM180 1147h10q6 0 7 6v68q0 6 -7 6h-10v-80z" glyph-name="registered" horiz-adv-x="456" unicode="®"/><glyph d="M250 1733q102 0 176 -73t74 -177q0 -102 -74 -176t-176 -74q-104 0 -177 73.5t-73 176.5q0 104 73 177t177 73zM250 1571q-37 0 -62.5 -25.5t-25.5 -62.5t25.5 -62.5t62.5 -25.5q35 0 61.5 25.5t26.5 62.5t-26.5 62.5t-61.5 25.5z" glyph-name="degree" horiz-adv-x="579" unicode="°"/><glyph d="M0 299h627v-299h-627v299zM627 870v-299h-164v-192h-299v192h-164v299h164v193h299v-193h164z" glyph-name="plusminus" horiz-adv-x="706" unicode="±"/><glyph d="M0 778v291l182 88q12 6 13 27v71q0 10 -11 11h-14q-10 0 -10 -11v-81h-160v118q0 47 33 80t78 33h131q45 0 78.5 -33t33.5 -80v-176q0 -45 -43 -69l-151 -80v-29h194v-160h-354z" glyph-name="uni00B2" horiz-adv-x="434" unicode="²"/><glyph d="M100 1151h84q10 0 11 10v94q0 10 -11 11h-14q-10 0 -10 -11v-81h-160v118q0 47 33 80t78 33h131q45 0 78.5 -33t33.5 -80v-92q-2 -33 -3 -47t-13 -35.5t-37 -30.5v-2q53 -18 53 -118v-86q0 -45 -32.5 -78t-79.5 -33h-131q-45 0 -78 33t-33 78v120h160v-81q0 -10 10 -11 h14q10 0 11 11v94q0 10 -11 10h-84v127z" glyph-name="uni00B3" horiz-adv-x="434" unicode="³"/><glyph d="M0 1049q10 59 30.5 174.5t30.5 173.5h361q-88 -172 -180 -348h-242z" glyph-name="acute" horiz-adv-x="481" unicode="´"/><glyph d="M360 -18v-119h-360v1534h360v-1075q0 -25 23 -25h35q23 0 22 25v1075h361v-1161q0 -104 -74 -179t-178 -75h-189z" glyph-name="uni00B5" unicode="µ"/><glyph d="M360 -18v-119h-360v1534h360v-1075q0 -25 23 -25h35q23 0 22 25v1075h361v-1161q0 -104 -74 -179t-178 -75h-189z" glyph-name="uni00B5" unicode="μ"/><glyph d="M252 1397h1178v-361h-220v-1036h-360v1036h-80v-1036h-346v440h-172q-104 0 -178 74t-74 178v451q0 104 74 179t178 75z" glyph-name="paragraph" horiz-adv-x="1509" unicode="¶"/><glyph d="M0 1397h299v-467h-299v467z" glyph-name="periodcentered" horiz-adv-x="378" unicode="·"/><glyph d="M0 0h166v-59h72q94 0 147 -62.5t53 -138.5t-53 -138.5t-147 -62.5h-238v166h238q33 0 32.5 34t-32.5 34h-238v227z" glyph-name="cedilla" horiz-adv-x="516" unicode="¸"/><glyph d="M158 1114l-43 -86l-115 59l164 310h153v-619h-159v336z" glyph-name="uni00B9" horiz-adv-x="397" unicode="¹"/><glyph d="M197 1255q0 10 -11 11h-16q-8 0 -8 -11v-335q0 -10 8 -11h16q10 0 11 11v335zM356 881q0 -45 -32.5 -78t-79.5 -33h-131q-47 0 -80 33t-33 78v411q0 47 33 80t80 33h131q47 0 79.5 -33t32.5 -80v-411z" glyph-name="ordmasculine" horiz-adv-x="436" unicode="º"/><glyph d="M0 1397h377l545 -699l-545 -698h-377l545 698zM465 1397h375l544 -699l-544 -698h-375l545 698z" glyph-name="guillemotright" horiz-adv-x="1464" unicode="»"/><glyph d="M518 1397h160l-285 -1397h-160zM158 1114l-43 -86l-115 59l164 310h153v-619h-159v336zM733 74h-207v143l148 404h207v-408h30v-139h-30v-74h-148v74zM733 426l-74 -213h74v213z" glyph-name="onequarter" horiz-adv-x="991" unicode="¼"/><glyph d="M526 1397h160l-285 -1397h-159zM158 1114l-43 -86l-115 59l164 310h153v-619h-159v336zM571 256q0 33 31 51l152 74q14 6 14 27v69q0 10 -10 10h-17q-10 0 -10 -10v-82h-160v121q0 45 33 78t80 33h131q47 0 80 -33t33 -78v-178q0 -41 -43 -68l-154 -80v-30h197v-160h-357 v256z" glyph-name="onehalf" horiz-adv-x="1007" unicode="½"/><glyph d="M537 1397h159l-284 -1397h-160zM563 74v143l148 404h207v-408h30v-139h-30v-74h-146v74h-209zM772 426l-74 -213h74v213zM100 1143h84q10 0 11 10v94q0 10 -11 10h-14q-10 0 -10 -10v-82h-160v119q0 47 33 80t78 33h131q45 0 78.5 -33t33.5 -80v-92q-2 -33 -3 -47.5 t-13 -34.5t-37 -29v-4q53 -18 53 -119v-84q0 -47 -32.5 -79.5t-79.5 -32.5h-131q-47 0 -79 32.5t-32 79.5v119h160v-82q0 -10 10 -10h14q10 0 11 10v95q0 10 -11 10h-84v127z" glyph-name="threequarters" horiz-adv-x="1028" unicode="¾"/><glyph d="M657 1055h-360v360h360v-360zM657 860q2 -76 -75 -143l-172 -144q-47 -47 -48 -100v-135q0 -23 23 -23h33q23 0 22 23v184h361v-268q0 -104 -74 -179t-178 -75h-295q-104 0 -179 75t-75 179v319q0 47 10 71t43 54l244 224v82h360v-144z" glyph-name="questiondown" unicode="¿"/><glyph d="M838 0h-367l-10 119h-142l-10 -119h-366l276 1397h342zM346 430h90l-43 500h-6zM496 1513h-205l-141 345h282z" glyph-name="Agrave" horiz-adv-x="856" unicode="À"/><glyph d="M285 1513l63 345h283l-142 -345h-204zM434 430l-41 500h-6l-43 -500h90zM-57 0l276 1397h342l277 -1397h-367l-10 119h-142l-10 -119h-366z" glyph-name="Aacute" horiz-adv-x="856" unicode="Á"/><glyph d="M838 0h-367l-10 119h-142l-10 -119h-366l276 1397h342zM346 430h90l-43 500h-6zM535 1858l217 -345h-222l-139 148l-141 -148h-221l217 345h289z" glyph-name="Acircumflex" horiz-adv-x="856" unicode="Â"/><glyph d="M838 0h-367l-10 119h-142l-10 -119h-366l276 1397h342zM346 430h90l-43 500h-6zM-14 1513l266 345l227 -54l39 54h277l-267 -345l-225 52l-41 -52h-276z" glyph-name="Atilde" horiz-adv-x="856" unicode="Ã"/><glyph d="M90 1509v258h258v-258h-258zM432 1509v258h258v-258h-258zM838 0h-367l-10 119h-142l-10 -119h-366l276 1397h342zM344 430h90l-41 500h-6z" glyph-name="Adieresis" horiz-adv-x="856" unicode="Ä"/><glyph d="M391 1735q102 0 176 -74t74 -176q0 -94 -63 -168l260 -1317h-367l-10 119h-142l-10 -119h-366q47 238 134 680t126 637q-63 74 -64 168q0 104 74 177t178 73zM391 1397q57 0 80 54t-18 95q-27 27 -62 27q-66 0 -84 -62q-14 -43 12.5 -78.5t71.5 -35.5zM346 430h90 l-43 500h-6q-27 -320 -41 -500z" glyph-name="Aring" horiz-adv-x="856" unicode="Å"/><glyph d="M1239 1397v-316h-381v-225h305v-315h-305v-226h381v-315h-741v119h-121l-10 -119h-367l279 1397h960zM498 967h-49l-46 -537h91z" glyph-name="AE" horiz-adv-x="1318" unicode="Æ"/><glyph d="M799 504v-268q0 -86 -51.5 -154t-131.5 -90v-219h-237q-33 0 -33 -34t33 -34h237v-166h-237q-94 0 -147.5 62.5t-53.5 138.5t53.5 138.5t147.5 62.5h72v41h-199q-104 0 -178 74.5t-74 179.5v925q0 104 73.5 179t178.5 75h295q104 0 178 -74.5t74 -179.5v-264h-361v180 q0 23 -22 23h-33q-23 0 -23 -23v-755q0 -25 23 -25h33q23 0 22 25v182h361z" glyph-name="Ccedilla" horiz-adv-x="878" unicode="Ç"/><glyph d="M0 1397h739v-316h-379v-225h304v-315h-304v-226h379v-315h-739v1397zM473 1513h-205l-141 345h283z" glyph-name="Egrave" horiz-adv-x="821" unicode="È"/><glyph d="M0 1397h739v-316h-379v-225h304v-315h-304v-226h379v-315h-739v1397zM272 1513l64 345h282l-141 -345h-205z" glyph-name="Eacute" horiz-adv-x="821" unicode="É"/><glyph d="M0 1397h739v-316h-379v-225h304v-315h-304v-226h379v-315h-739v1397zM729 1513h-221l-139 148l-142 -148h-221l217 345h289z" glyph-name="Ecircumflex" horiz-adv-x="821" unicode="Ê"/><glyph d="M0 0v1397h739v-316h-379v-225h304v-315h-304v-226h379v-315h-739zM74 1509v258h258v-258h-258zM416 1509v258h258v-258h-258z" glyph-name="Edieresis" horiz-adv-x="821" unicode="Ë"/><glyph d="M0 1397h360v-1397h-360v1397zM283 1513h-205l-141 345h282z" glyph-name="Igrave" horiz-adv-x="440" unicode="Ì"/><glyph d="M360 1397v-1397h-360v1397h360zM78 1513l63 345h283l-141 -345h-205z" glyph-name="Iacute" horiz-adv-x="503" unicode="Í"/><glyph d="M0 1397h360v-1397h-360v1397zM541 1513h-222l-139 148l-141 -148h-221l217 345h289z" glyph-name="Icircumflex" horiz-adv-x="440" unicode="Î"/><glyph d="M0 1397h360v-1397h-360v1397zM-121 1767h258v-258h-258v258zM221 1767h258v-258h-258v258z" glyph-name="Idieresis" horiz-adv-x="440" unicode="Ï"/><glyph d="M600 1397q104 0 179 -75t75 -179v-889q0 -104 -74.5 -179t-179.5 -75h-547v643h-53v111h53v643h547zM494 1059q0 23 -23 22h-57v-327h53v-111h-53v-328h57q23 0 23 23v721z" glyph-name="Eth" horiz-adv-x="933" unicode="Ð"/><glyph d="M0 1397h317l150 -553h6v553h318v-1397h-320l-145 555h-7v-555h-319v1397zM-14 1513l266 345l227 -54l39 54h277l-267 -345l-225 52l-41 -52h-276z" glyph-name="Ntilde" horiz-adv-x="870" unicode="Ñ"/><glyph d="M360 1077v-755q0 -25 23 -25h33q23 0 22 25v755q0 23 -22 23h-33q-23 0 -23 -23zM801 1161v-925q0 -104 -75 -179t-179 -75h-295q-104 0 -178 74.5t-74 179.5v925q0 104 73.5 179t178.5 75h295q104 0 179 -75t75 -179zM494 1513h-205l-142 345h283z" glyph-name="Ograve" unicode="Ò"/><glyph d="M307 1513l64 345h282l-141 -345h-205zM0 1161q0 104 75 179t179 75h295q104 0 178 -74.5t74 -179.5v-925q0 -104 -74 -179t-178 -75h-295q-104 0 -179 74.5t-75 179.5v925zM440 1077q0 23 -22 23h-33q-23 0 -23 -23v-755q0 -25 23 -25h33q23 0 22 25v755z" glyph-name="Oacute" unicode="Ó"/><glyph d="M360 1077v-755q0 -25 23 -25h33q23 0 22 25v755q0 23 -22 23h-33q-23 0 -23 -23zM801 1161v-925q0 -104 -75 -179t-179 -75h-295q-104 0 -178 74.5t-74 179.5v925q0 104 73.5 179t178.5 75h295q104 0 179 -75t75 -179zM758 1513h-221l-140 148l-141 -148h-221l217 345 h289z" glyph-name="Ocircumflex" unicode="Ô"/><glyph d="M360 1077v-755q0 -25 23 -25h33q23 0 22 25v755q0 23 -22 23h-33q-23 0 -23 -23zM801 1161v-925q0 -104 -75 -179t-179 -75h-295q-104 0 -178 74.5t-74 179.5v925q0 104 73.5 179t178.5 75h295q104 0 179 -75t75 -179zM-14 1513l266 345l227 -54l39 54h277l-267 -345 l-225 52l-41 -52h-276z" glyph-name="Otilde" unicode="Õ"/><glyph d="M360 1077v-755q0 -25 23 -25h33q23 0 22 25v755q0 23 -22 23h-33q-23 0 -23 -23zM801 1161v-925q0 -104 -75 -179t-179 -75h-295q-104 0 -178 74.5t-74 179.5v925q0 104 73.5 179t178.5 75h295q104 0 179 -75t75 -179zM102 1767h258v-258h-258v258zM444 1767h258v-258 h-258v258z" glyph-name="Odieresis" unicode="Ö"/><glyph d="M872 0h-299l-137 211l-137 -211h-299l287 442l-287 441h299l137 -211l137 211h299l-286 -441z" glyph-name="multiply" horiz-adv-x="952" unicode="×"/><glyph d="M719 1530l-33 -158q113 -76 113 -211v-925q0 -104 -74 -179t-178 -75h-144l-22 -115h-301l33 158q-113 76 -113 211v925q0 104 73.5 179t178.5 75h143l25 115h299zM360 322q0 -25 23 -25h33q23 0 22 25v755q0 23 -22 23h-33q-23 0 -23 -23v-755z" glyph-name="Oslash" horiz-adv-x="878" unicode="Ø"/><glyph d="M438 324v1073h363v-1157q0 -104 -75 -179t-179 -75h-295q-104 0 -178 74.5t-74 179.5v1157h360v-1073q0 -23 23 -23h33q22 0 22 23zM500 1513h-205l-141 345h282z" glyph-name="Ugrave" unicode="Ù"/><glyph d="M301 1513l64 345h282l-141 -345h-205zM362 324q0 -23 23 -23h33q23 0 22 23v1073h361v-1157q0 -104 -74 -179t-178 -75h-295q-104 0 -179 74.5t-75 179.5v1157h362v-1073z" glyph-name="Uacute" unicode="Ú"/><glyph d="M438 324v1073h363v-1157q0 -104 -75 -179t-179 -75h-295q-104 0 -178 74.5t-74 179.5v1157h360v-1073q0 -23 23 -23h33q22 0 22 23zM758 1513h-221l-140 148l-141 -148h-221l217 345h289z" glyph-name="Ucircumflex" unicode="Û"/><glyph d="M438 324v1073h363v-1157q0 -104 -75 -179t-179 -75h-295q-104 0 -178 74.5t-74 179.5v1157h360v-1073q0 -23 23 -23h33q22 0 22 23zM102 1767h258v-258h-258v258zM444 1767h258v-258h-258v258z" glyph-name="Udieresis" unicode="Ü"/><glyph d="M258 430l-270 967h368l80 -520h6l80 520h369l-273 -967v-430h-360v430zM340 1513l63 345h283l-141 -345h-205z" glyph-name="Yacute" horiz-adv-x="962" unicode="Ý"/><glyph d="M547 1149q104 0 179 -75t75 -179v-393q0 -104 -75 -179t-179 -75h-187v-248h-360v1397h360v-248h187zM360 563h56q23 0 22 23v225q0 23 -22 23h-56v-271z" glyph-name="Thorn" unicode="Þ"/><glyph d="M254 1397h295q104 0 178 -75t74 -179v-174q0 -49 -4 -83t-15.5 -76t-40 -70.5t-71.5 -41.5q45 -14 72.5 -41.5t40 -68.5t15.5 -75t3 -85v-174q0 -104 -74 -179t-178 -75h-139v315h8q23 0 22 23v194q0 23 -22 23h-8v287h8q23 0 22 22v195q0 23 -22 22h-33q-25 0 -25 -22 v-1059h-360v1143q0 104 75 179t179 75z" glyph-name="germandbls" unicode="ß"/><glyph d="M838 0h-367l-10 119h-142l-10 -119h-366l276 1397h342zM346 430h90l-43 500h-6zM496 1513h-205l-141 345h282z" glyph-name="agrave" horiz-adv-x="856" unicode="à"/><glyph d="M285 1513l63 345h283l-142 -345h-204zM434 430l-41 500h-6l-43 -500h90zM-57 0l276 1397h342l277 -1397h-367l-10 119h-142l-10 -119h-366z" glyph-name="aacute" horiz-adv-x="856" unicode="á"/><glyph d="M838 0h-367l-10 119h-142l-10 -119h-366l276 1397h342zM346 430h90l-43 500h-6zM752 1513h-222l-139 148l-141 -148h-221l217 345h289z" glyph-name="acircumflex" horiz-adv-x="856" unicode="â"/><glyph d="M838 0h-367l-10 119h-142l-10 -119h-366l276 1397h342zM346 430h90l-43 500h-6zM-14 1513l266 345l227 -54l39 54h277l-267 -345l-225 52l-41 -52h-276z" glyph-name="atilde" horiz-adv-x="856" unicode="ã"/><glyph d="M90 1509v258h258v-258h-258zM432 1509v258h258v-258h-258zM838 0h-367l-10 119h-142l-10 -119h-366l276 1397h342zM344 430h90l-41 500h-6z" glyph-name="adieresis" horiz-adv-x="856" unicode="ä"/><glyph d="M391 1735q102 0 176 -74t74 -176q0 -94 -63 -168l260 -1317h-367l-10 119h-142l-10 -119h-366q47 238 134 680t126 637q-63 74 -64 168q0 104 74 177t178 73zM391 1397q57 0 80 54t-18 95q-27 27 -62 27q-66 0 -84 -62q-14 -43 12.5 -78.5t71.5 -35.5zM346 430h90 l-43 500h-6q-27 -320 -41 -500z" glyph-name="aring" horiz-adv-x="856" unicode="å"/><glyph d="M1239 1397v-316h-381v-225h305v-315h-305v-226h381v-315h-741v119h-121l-10 -119h-367l279 1397h960zM498 967h-49l-46 -537h91z" glyph-name="ae" horiz-adv-x="1318" unicode="æ"/><glyph d="M799 504v-268q0 -86 -51.5 -154t-131.5 -90v-219h-237q-33 0 -33 -34t33 -34h237v-166h-237q-94 0 -147.5 62.5t-53.5 138.5t53.5 138.5t147.5 62.5h72v41h-199q-104 0 -178 74.5t-74 179.5v925q0 104 73.5 179t178.5 75h295q104 0 178 -74.5t74 -179.5v-264h-361v180 q0 23 -22 23h-33q-23 0 -23 -23v-755q0 -25 23 -25h33q23 0 22 25v182h361z" glyph-name="ccedilla" horiz-adv-x="878" unicode="ç"/><glyph d="M0 1397h739v-316h-379v-225h304v-315h-304v-226h379v-315h-739v1397zM473 1513h-205l-141 345h283z" glyph-name="egrave" horiz-adv-x="821" unicode="è"/><glyph d="M0 1397h739v-316h-379v-225h304v-315h-304v-226h379v-315h-739v1397zM272 1513l64 345h282l-141 -345h-205z" glyph-name="eacute" horiz-adv-x="821" unicode="é"/><glyph d="M0 1397h739v-316h-379v-225h304v-315h-304v-226h379v-315h-739v1397zM729 1513h-221l-139 148l-142 -148h-221l217 345h289z" glyph-name="ecircumflex" horiz-adv-x="821" unicode="ê"/><glyph d="M0 1397h739v-316h-379v-225h304v-315h-304v-226h379v-315h-739v1397zM74 1767h258v-258h-258v258zM416 1767h258v-258h-258v258z" glyph-name="edieresis" horiz-adv-x="821" unicode="ë"/><glyph d="M0 1397h360v-1397h-360v1397zM283 1513h-205l-141 345h282z" glyph-name="igrave" horiz-adv-x="440" unicode="ì"/><glyph d="M360 1397v-1397h-360v1397h360zM78 1513l63 345h283l-141 -345h-205z" glyph-name="iacute" horiz-adv-x="503" unicode="í"/><glyph d="M0 1397h360v-1397h-360v1397zM541 1513h-222l-139 148l-141 -148h-221l217 345h289z" glyph-name="icircumflex" horiz-adv-x="440" unicode="î"/><glyph d="M0 0v1397h360v-1397h-360zM-121 1509v258h258v-258h-258zM221 1509v258h258v-258h-258z" glyph-name="idieresis" horiz-adv-x="440" unicode="ï"/><glyph d="M53 1397h547q104 0 179 -75t75 -179v-889q0 -104 -74.5 -179t-179.5 -75h-547v643h-53v111h53v643zM494 338v721q0 23 -23 22h-57v-327h53v-111h-53v-328h57q23 0 23 23z" glyph-name="eth" horiz-adv-x="933" unicode="ð"/><glyph d="M0 1397h317l150 -553h6v553h318v-1397h-320l-145 555h-7v-555h-319v1397zM-14 1513l266 345l227 -54l39 54h277l-267 -345l-225 52l-41 -52h-276z" glyph-name="ntilde" horiz-adv-x="870" unicode="ñ"/><glyph d="M360 1077v-755q0 -25 23 -25h33q23 0 22 25v755q0 23 -22 23h-33q-23 0 -23 -23zM801 1161v-925q0 -104 -75 -179t-179 -75h-295q-104 0 -178 74.5t-74 179.5v925q0 104 73.5 179t178.5 75h295q104 0 179 -75t75 -179zM494 1513h-205l-142 345h283z" glyph-name="ograve" unicode="ò"/><glyph d="M307 1513l64 345h282l-141 -345h-205zM0 1161q0 104 75 179t179 75h295q104 0 178 -74.5t74 -179.5v-925q0 -104 -74 -179t-178 -75h-295q-104 0 -179 74.5t-75 179.5v925zM440 1077q0 23 -22 23h-33q-23 0 -23 -23v-755q0 -25 23 -25h33q23 0 22 25v755z" glyph-name="oacute" unicode="ó"/><glyph d="M360 1077v-755q0 -25 23 -25h33q23 0 22 25v755q0 23 -22 23h-33q-23 0 -23 -23zM801 1161v-925q0 -104 -75 -179t-179 -75h-295q-104 0 -178 74.5t-74 179.5v925q0 104 73.5 179t178.5 75h295q104 0 179 -75t75 -179zM758 1513h-221l-140 148l-141 -148h-221l217 345 h289z" glyph-name="ocircumflex" unicode="ô"/><glyph d="M360 1077v-755q0 -25 23 -25h33q23 0 22 25v755q0 23 -22 23h-33q-23 0 -23 -23zM801 1161v-925q0 -104 -75 -179t-179 -75h-295q-104 0 -178 74.5t-74 179.5v925q0 104 73.5 179t178.5 75h295q104 0 179 -75t75 -179zM-14 1513l266 345l227 -54l39 54h277l-267 -345 l-225 52l-41 -52h-276z" glyph-name="otilde" unicode="õ"/><glyph d="M360 1077v-755q0 -25 23 -25h33q23 0 22 25v755q0 23 -22 23h-33q-23 0 -23 -23zM801 1161v-925q0 -104 -75 -179t-179 -75h-295q-104 0 -178 74.5t-74 179.5v925q0 104 73.5 179t178.5 75h295q104 0 179 -75t75 -179zM102 1767h258v-258h-258v258zM444 1767h258v-258 h-258v258z" glyph-name="odieresis" unicode="ö"/><glyph d="M123 1188h360v-361h-360v361zM123 360h360v-360h-360v360zM0 743h608v-299h-608v299z" glyph-name="divide" horiz-adv-x="688" unicode="÷"/><glyph d="M719 1530l-33 -158q113 -76 113 -211v-925q0 -104 -74 -179t-178 -75h-144l-22 -115h-301l33 158q-113 76 -113 211v925q0 104 73.5 179t178.5 75h143l25 115h299zM360 322q0 -25 23 -25h33q23 0 22 25v755q0 23 -22 23h-33q-23 0 -23 -23v-755z" glyph-name="oslash" horiz-adv-x="878" unicode="ø"/><glyph d="M438 324v1073h363v-1157q0 -104 -75 -179t-179 -75h-295q-104 0 -178 74.5t-74 179.5v1157h360v-1073q0 -23 23 -23h33q22 0 22 23zM500 1513h-205l-141 345h282z" glyph-name="ugrave" unicode="ù"/><glyph d="M301 1513l64 345h282l-141 -345h-205zM362 324q0 -23 23 -23h33q23 0 22 23v1073h361v-1157q0 -104 -74 -179t-178 -75h-295q-104 0 -179 74.5t-75 179.5v1157h362v-1073z" glyph-name="uacute" unicode="ú"/><glyph d="M438 324v1073h363v-1157q0 -104 -75 -179t-179 -75h-295q-104 0 -178 74.5t-74 179.5v1157h360v-1073q0 -23 23 -23h33q22 0 22 23zM758 1513h-221l-140 148l-141 -148h-221l217 345h289z" glyph-name="ucircumflex" unicode="û"/><glyph d="M438 324v1073h363v-1157q0 -104 -75 -179t-179 -75h-295q-104 0 -178 74.5t-74 179.5v1157h360v-1073q0 -23 23 -23h33q22 0 22 23zM102 1767h258v-258h-258v258zM444 1767h258v-258h-258v258z" glyph-name="udieresis" unicode="ü"/><glyph d="M258 430l-270 967h368l80 -520h6l80 520h369l-273 -967v-430h-360v430zM340 1513l63 345h283l-141 -345h-205z" glyph-name="yacute" horiz-adv-x="962" unicode="ý"/><glyph d="M547 1149q104 0 179 -75t75 -179v-393q0 -104 -75 -179t-179 -75h-187v-248h-360v1397h360v-248h187zM360 563h56q23 0 22 23v225q0 23 -22 23h-56v-271z" glyph-name="thorn" unicode="þ"/><glyph d="M258 430l-270 967h368l80 -520h6l80 520h369l-273 -967v-430h-360v430zM145 1767h258v-258h-258v258zM487 1767h258v-258h-258v258z" glyph-name="ydieresis" horiz-adv-x="962" unicode="ÿ"/><glyph d="M838 0h-367l-10 119h-142l-10 -119h-366l276 1397h342zM346 430h90l-43 500h-6zM76 1720h629l2 -211h-631v211z" glyph-name="Amacron" horiz-adv-x="856" unicode="Ā"/><glyph d="M838 0h-367l-10 119h-142l-10 -119h-366l276 1397h342zM346 430h90l-43 500h-6zM76 1720h629l2 -211h-631v211z" glyph-name="amacron" horiz-adv-x="856" unicode="ā"/><glyph d="M838 0h-367l-10 119h-142l-10 -119h-366l276 1397h342zM346 430h90l-43 500h-6zM281 1858v-134h208v134h209l2 -345h-628v345h209z" glyph-name="Abreve" horiz-adv-x="856" unicode="Ă"/><glyph d="M838 0h-367l-10 119h-142l-10 -119h-366l276 1397h342zM346 430h90l-43 500h-6zM281 1858v-134h208v134h209l2 -345h-628v345h209z" glyph-name="abreve" horiz-adv-x="856" unicode="ă"/><glyph d="M838 0h-99v-227h-237q-35 0 -35 -34t35 -34h235v-166h-235q-94 0 -147.5 62.5t-53.5 138.5t53.5 138.5t147.5 62.5h69v59h-100l-10 119h-142l-10 -119h-366l276 1397h342zM346 430h90l-43 500h-6z" glyph-name="Aogonek" horiz-adv-x="856" unicode="Ą"/><glyph d="M838 0h-99v-227h-237q-35 0 -35 -34t35 -34h235v-166h-235q-94 0 -147.5 62.5t-53.5 138.5t53.5 138.5t147.5 62.5h69v59h-100l-10 119h-142l-10 -119h-366l276 1397h342zM346 430h90l-43 500h-6z" glyph-name="aogonek" horiz-adv-x="856" unicode="ą"/><glyph d="M801 504v-268q0 -104 -75 -179t-179 -75h-295q-104 0 -178 74.5t-74 179.5v925q0 104 73.5 179t178.5 75h295q104 0 179 -74.5t75 -179.5v-264h-363v180q0 23 -22 23h-33q-23 0 -23 -23v-755q0 -25 23 -25h33q23 0 22 25v182h363zM289 1513l63 345h283l-141 -345h-205z " glyph-name="Cacute" unicode="Ć"/><glyph d="M801 504v-268q0 -104 -75 -179t-179 -75h-295q-104 0 -178 74.5t-74 179.5v925q0 104 73.5 179t178.5 75h295q104 0 179 -74.5t75 -179.5v-264h-363v180q0 23 -22 23h-33q-23 0 -23 -23v-755q0 -25 23 -25h33q23 0 22 25v182h363zM289 1513l63 345h283l-141 -345h-205z " glyph-name="cacute" unicode="ć"/><glyph d="M801 504v-268q0 -104 -75 -179t-179 -75h-295q-104 0 -178 74.5t-74 179.5v925q0 104 73.5 179t178.5 75h295q104 0 179 -74.5t75 -179.5v-264h-363v180q0 23 -22 23h-33q-23 0 -23 -23v-755q0 -25 23 -25h33q23 0 22 25v182h363zM545 1858l217 -345h-221l-140 148 l-141 -148h-221l217 345h289z" glyph-name="Ccircumflex" unicode="Ĉ"/><glyph d="M801 504v-268q0 -104 -75 -179t-179 -75h-295q-104 0 -178 74.5t-74 179.5v925q0 104 73.5 179t178.5 75h295q104 0 179 -74.5t75 -179.5v-264h-363v180q0 23 -22 23h-33q-23 0 -23 -23v-755q0 -25 23 -25h33q23 0 22 25v182h363zM545 1858l217 -345h-221l-140 148 l-141 -148h-221l217 345h289z" glyph-name="ccircumflex" unicode="ĉ"/><glyph d="M801 504v-268q0 -104 -75 -179t-179 -75h-295q-104 0 -178 74.5t-74 179.5v925q0 104 73.5 179t178.5 75h295q104 0 179 -74.5t75 -179.5v-264h-363v180q0 23 -22 23h-33q-23 0 -23 -23v-755q0 -25 23 -25h33q23 0 22 25v182h363zM274 1767h258v-258h-258v258z" glyph-name="Cdotaccent" unicode="Ċ"/><glyph d="M801 504v-268q0 -104 -75 -179t-179 -75h-295q-104 0 -178 74.5t-74 179.5v925q0 104 73.5 179t178.5 75h295q104 0 179 -74.5t75 -179.5v-264h-363v180q0 23 -22 23h-33q-23 0 -23 -23v-755q0 -25 23 -25h33q23 0 22 25v182h363zM274 1767h258v-258h-258v258z" glyph-name="cdotaccent" unicode="ċ"/><glyph d="M801 504v-268q0 -104 -75 -179t-179 -75h-295q-104 0 -178 74.5t-74 179.5v925q0 104 73.5 179t178.5 75h295q104 0 179 -74.5t75 -179.5v-264h-363v180q0 23 -22 23h-33q-23 0 -23 -23v-755q0 -25 23 -25h33q23 0 22 25v182h363zM541 1858h221l-217 -345h-289l-217 345 h221l141 -148z" glyph-name="Ccaron" unicode="Č"/><glyph d="M801 504v-268q0 -104 -75 -179t-179 -75h-295q-104 0 -178 74.5t-74 179.5v925q0 104 73.5 179t178.5 75h295q104 0 179 -74.5t75 -179.5v-264h-363v180q0 23 -22 23h-33q-23 0 -23 -23v-755q0 -25 23 -25h33q23 0 22 25v182h363zM541 1858h221l-217 -345h-289l-217 345 h221l141 -148z" glyph-name="ccaron" unicode="č"/><glyph d="M547 1397q104 0 178 -75t74 -179v-889q0 -104 -74 -179t-178 -75h-547v1397h547zM360 315h56q23 0 22 23v721q0 23 -22 22h-56v-766zM537 1858h221l-217 -345h-289l-217 345h221l141 -148z" glyph-name="Dcaron" unicode="Ď"/><glyph d="M547 1397q104 0 178 -75t74 -179v-889q0 -104 -74 -179t-178 -75h-547v1397h547zM360 315h56q23 0 22 23v721q0 23 -22 22h-56v-766zM1139 987h-176v105h73v43h-155v262h258v-410z" glyph-name="dcaron" horiz-adv-x="1218" unicode="ď"/><glyph d="M53 1397h547q104 0 179 -75t75 -179v-889q0 -104 -74.5 -179t-179.5 -75h-547v643h-53v111h53v643zM494 338v721q0 23 -23 22h-57v-327h53v-111h-53v-328h57q23 0 23 23z" glyph-name="Dcroat" horiz-adv-x="933" unicode="Đ"/><glyph d="M53 1397h547q104 0 179 -75t75 -179v-889q0 -104 -74.5 -179t-179.5 -75h-547v643h-53v111h53v643zM494 338v721q0 23 -23 22h-57v-327h53v-111h-53v-328h57q23 0 23 23z" glyph-name="dcroat" horiz-adv-x="933" unicode="đ"/><glyph d="M0 1397h739v-316h-379v-225h304v-315h-304v-226h379v-315h-739v1397zM55 1720h629l2 -211h-631v211z" glyph-name="Emacron" horiz-adv-x="821" unicode="Ē"/><glyph d="M0 1397h739v-316h-379v-225h304v-315h-304v-226h379v-315h-739v1397zM55 1720h629l2 -211h-631v211z" glyph-name="emacron" horiz-adv-x="821" unicode="ē"/><glyph d="M0 1397h739v-316h-379v-225h304v-315h-304v-226h379v-315h-739v1397zM252 1767h258v-258h-258v258z" glyph-name="Edotaccent" horiz-adv-x="821" unicode="Ė"/><glyph d="M0 1397h739v-316h-379v-225h304v-315h-304v-226h379v-315h-739v1397zM252 1767h258v-258h-258v258z" glyph-name="edotaccent" horiz-adv-x="821" unicode="ė"/><glyph d="M350 -461q-94 0 -147 62.5t-53 138.5t53 138.5t147 62.5h70v59h-420v1397h739v-316h-379v-225h304v-315h-304v-226h379v-315h-151v-227h-238q-35 0 -35 -34t35 -34h236v-166h-236z" glyph-name="Eogonek" horiz-adv-x="821" unicode="Ę"/><glyph d="M350 -461q-94 0 -147 62.5t-53 138.5t53 138.5t147 62.5h70v59h-420v1397h739v-316h-379v-225h304v-315h-304v-226h379v-315h-151v-227h-238q-35 0 -35 -34t35 -34h236v-166h-236z" glyph-name="eogonek" horiz-adv-x="821" unicode="ę"/><glyph d="M0 1397h739v-316h-379v-225h304v-315h-304v-226h379v-315h-739v1397zM512 1858h221l-217 -345h-289l-217 345h221l142 -148z" glyph-name="Ecaron" horiz-adv-x="821" unicode="Ě"/><glyph d="M0 1397h739v-316h-379v-225h304v-315h-304v-226h379v-315h-739v1397zM512 1858h221l-217 -345h-289l-217 345h221l142 -148z" glyph-name="ecaron" horiz-adv-x="821" unicode="ě"/><glyph d="M809 236q0 -104 -75 -179t-179 -75h-303q-104 0 -178 74.5t-74 179.5v925q0 104 73.5 179t178.5 75h303q104 0 179 -74.5t75 -179.5v-264h-360v180q0 23 -25 23h-41q-23 0 -23 -23v-755q0 -25 23 -25h41q25 0 25 25v262h-46v233h406v-581zM768 1513h-221l-139 148 l-142 -148h-221l217 345h289z" glyph-name="Gcircumflex" horiz-adv-x="888" unicode="Ĝ"/><glyph d="M809 236q0 -104 -75 -179t-179 -75h-303q-104 0 -178 74.5t-74 179.5v925q0 104 73.5 179t178.5 75h303q104 0 179 -74.5t75 -179.5v-264h-360v180q0 23 -25 23h-41q-23 0 -23 -23v-755q0 -25 23 -25h41q25 0 25 25v262h-46v233h406v-581zM768 1513h-221l-139 148 l-142 -148h-221l217 345h289z" glyph-name="gcircumflex" horiz-adv-x="888" unicode="ĝ"/><glyph d="M809 236q0 -104 -75 -179t-179 -75h-303q-104 0 -178 74.5t-74 179.5v925q0 104 73.5 179t178.5 75h303q104 0 179 -74.5t75 -179.5v-264h-360v180q0 23 -25 23h-41q-23 0 -23 -23v-755q0 -25 23 -25h41q25 0 25 25v262h-46v233h406v-581zM295 1858v-134h209v134h209 l2 -345h-629v345h209z" glyph-name="Gbreve" horiz-adv-x="888" unicode="Ğ"/><glyph d="M809 236q0 -104 -75 -179t-179 -75h-303q-104 0 -178 74.5t-74 179.5v925q0 104 73.5 179t178.5 75h303q104 0 179 -74.5t75 -179.5v-264h-360v180q0 23 -25 23h-41q-23 0 -23 -23v-755q0 -25 23 -25h41q25 0 25 25v262h-46v233h406v-581zM295 1858v-134h209v134h209 l2 -345h-629v345h209z" glyph-name="gbreve" horiz-adv-x="888" unicode="ğ"/><glyph d="M809 236q0 -104 -75 -179t-179 -75h-303q-104 0 -178 74.5t-74 179.5v925q0 104 73.5 179t178.5 75h303q104 0 179 -74.5t75 -179.5v-264h-360v180q0 23 -25 23h-41q-23 0 -23 -23v-755q0 -25 23 -25h41q25 0 25 25v262h-46v233h406v-581zM279 1767h258v-258h-258v258z " glyph-name="Gdotaccent" horiz-adv-x="888" unicode="Ġ"/><glyph d="M809 236q0 -104 -75 -179t-179 -75h-303q-104 0 -178 74.5t-74 179.5v925q0 104 73.5 179t178.5 75h303q104 0 179 -74.5t75 -179.5v-264h-360v180q0 23 -25 23h-41q-23 0 -23 -23v-755q0 -25 23 -25h41q25 0 25 25v262h-46v233h406v-581zM279 1767h258v-258h-258v258z " glyph-name="gdotaccent" horiz-adv-x="888" unicode="ġ"/><glyph d="M809 236q0 -104 -75 -179t-179 -75h-303q-104 0 -178 74.5t-74 179.5v925q0 104 73.5 179t178.5 75h303q104 0 179 -74.5t75 -179.5v-264h-360v180q0 23 -25 23h-41q-23 0 -23 -23v-755q0 -25 23 -25h41q25 0 25 25v262h-46v233h406v-581zM532 -469h-176v104h74v43h-156 v263h258v-410z" glyph-name="Gcommaaccent" horiz-adv-x="888" unicode="Ģ"/><glyph d="M809 817v-581q0 -104 -75 -179t-179 -75h-303q-104 0 -178 74.5t-74 179.5v925q0 104 73.5 179t178.5 75h303q104 0 179 -74.5t75 -179.5v-264h-360v180q0 23 -25 23h-41q-23 0 -23 -23v-755q0 -25 23 -25h41q25 0 25 25v262h-46v233h406zM272 1917h177v-105h-72v-45h153 v-258h-258v408z" glyph-name="gcommaaccent" horiz-adv-x="888" unicode="ģ"/><glyph d="M0 1397h360v-541h89v541h360v-1397h-360v541h-89v-541h-360v1397zM549 1858l217 -345h-221l-139 148l-142 -148h-221l217 345h289z" glyph-name="Hcircumflex" horiz-adv-x="888" unicode="Ĥ"/><glyph d="M0 1397h360v-541h89v541h360v-1397h-360v541h-89v-541h-360v1397zM549 1858l217 -345h-221l-139 148l-142 -148h-221l217 345h289z" glyph-name="hcircumflex" horiz-adv-x="888" unicode="ĥ"/><glyph d="M137 1397h361v-170h88v170h360v-170h137v-240h-137v-987h-360v541h-88v-541h-361v987h-137v240h137v170zM498 987v-131h88v131h-88z" glyph-name="Hbar" horiz-adv-x="1163" unicode="Ħ"/><glyph d="M0 1397h360v-541h89v541h360v-1397h-360v541h-89v-541h-360v1397zM549 1858l217 -345h-221l-139 148l-142 -148h-221l217 345h289z" glyph-name="hbar" horiz-adv-x="888" unicode="ħ"/><glyph d="M0 1397h360v-1397h-360v1397zM-229 1513l266 345l227 -54l39 54h277l-267 -345l-225 52l-41 -52h-276z" glyph-name="Itilde" horiz-adv-x="440" unicode="Ĩ"/><glyph d="M0 1397h360v-1397h-360v1397zM-229 1513l266 345l227 -54l39 54h277l-267 -345l-225 52l-41 -52h-276z" glyph-name="itilde" horiz-adv-x="440" unicode="ĩ"/><glyph d="M0 1397h360v-1397h-360v1397zM-127 1720h629l2 -211h-631v211z" glyph-name="Imacron" horiz-adv-x="440" unicode="Ī"/><glyph d="M0 1397h360v-1397h-360v1397zM-127 1720h629l2 -211h-631v211z" glyph-name="imacron" horiz-adv-x="440" unicode="ī"/><glyph d="M174 1397h361v-1397h-99v-227h-237q-33 0 -33 -34t33 -34h237v-166h-237q-94 0 -147.5 62.5t-53.5 138.5t53 138.5t148 62.5h71v59h-96v1397z" glyph-name="Iogonek" horiz-adv-x="614" unicode="Į"/><glyph d="M174 1397h361v-1397h-99v-227h-237q-33 0 -33 -34t33 -34h237v-166h-237q-94 0 -147.5 62.5t-53.5 138.5t53 138.5t148 62.5h71v59h-96v1397z" glyph-name="iogonek" horiz-adv-x="614" unicode="į"/><glyph d="M0 1397h360v-1397h-360v1397zM53 1767h258v-258h-258v258z" glyph-name="Idotaccent" horiz-adv-x="440" unicode="İ"/><glyph d="M575 1397v-1397h-360v1036h-215v361h575z" glyph-name="dotlessi" horiz-adv-x="655" unicode="ı"/><glyph d="M223 -18q-109 0 -185.5 82.5t-98.5 185.5l297 143q12 -45 47 -47q33 0 32 31v1020h361v-1161q0 -104 -75 -179t-179 -75h-199zM412 1858l217 -345h-221l-140 148l-141 -148h-221l217 345h289z" glyph-name="Jcircumflex" horiz-adv-x="755" unicode="Ĵ"/><glyph d="M223 -18q-109 0 -185.5 82.5t-98.5 185.5l297 143q12 -45 47 -47q33 0 32 31v1020h361v-1161q0 -104 -75 -179t-179 -75h-199zM412 1858l217 -345h-221l-140 148l-141 -148h-221l217 345h289z" glyph-name="jcircumflex" horiz-adv-x="755" unicode="ĵ"/><glyph d="M0 1397h360v-580h7l135 580h372l-182 -699l182 -698h-372l-135 580h-7v-580h-360v1397zM561 -451h-176v105h74v43h-156v262h258v-410z" glyph-name="Kcommaaccent" horiz-adv-x="942" unicode="Ķ"/><glyph d="M0 1397h360v-580h7l135 580h372l-182 -699l182 -698h-372l-135 580h-7v-580h-360v1397zM561 -451h-176v105h74v43h-156v262h258v-410z" glyph-name="kcommaaccent" horiz-adv-x="942" unicode="ķ"/><glyph d="M0 1397h360v-580h7l135 580h372l-182 -699l182 -698h-372l-135 580h-7v-580h-360v1397z" glyph-name="kgreenlandic" horiz-adv-x="942" unicode="ĸ"/><glyph d="M0 1397h360v-1082h326v-315h-686v1397zM76 1513l63 345h283l-141 -345h-205z" glyph-name="Lacute" horiz-adv-x="765" unicode="Ĺ"/><glyph d="M0 1397h360v-1082h326v-315h-686v1397zM76 1513l63 345h283l-141 -345h-205z" glyph-name="lacute" horiz-adv-x="765" unicode="ĺ"/><glyph d="M0 1397h360v-1082h326v-315h-686v1397zM479 -453h-176v105h74v43h-156v262h258v-410z" glyph-name="Lcommaaccent" horiz-adv-x="765" unicode="Ļ"/><glyph d="M0 1397h360v-1082h326v-315h-686v1397zM475 -451h-176v105h74v43h-156v262h258v-410z" glyph-name="lcommaaccent" horiz-adv-x="765" unicode="ļ"/><glyph d="M0 1397h360v-1082h326v-315h-686v1397zM322 1858h221l-217 -345h-289l-217 345h221l141 -148z" glyph-name="Lcaron" horiz-adv-x="765" unicode="Ľ"/><glyph d="M0 0v1397h360v-1082h326v-315h-686zM700 987h-176v105h74v43h-156v262h258v-410z" glyph-name="lcaron" horiz-adv-x="780" unicode="ľ"/><glyph d="M240 1397h360v-537l186 101l54 -101l-240 -129v-416h326v-315h-686v537l-187 -101l-53 101l240 129v731z" glyph-name="Lslash" horiz-adv-x="1005" unicode="Ł"/><glyph d="M240 1397h360v-537l186 101l54 -101l-240 -129v-416h326v-315h-686v537l-187 -101l-53 101l240 129v731z" glyph-name="lslash" horiz-adv-x="1005" unicode="ł"/><glyph d="M0 1397h317l150 -553h6v553h318v-1397h-320l-145 555h-7v-555h-319v1397zM297 1513l63 345h283l-141 -345h-205z" glyph-name="Nacute" horiz-adv-x="870" unicode="Ń"/><glyph d="M0 1397h317l150 -553h6v553h318v-1397h-320l-145 555h-7v-555h-319v1397zM297 1513l63 345h283l-141 -345h-205z" glyph-name="nacute" horiz-adv-x="870" unicode="ń"/><glyph d="M0 1397h317l150 -553h6v553h318v-1397h-320l-145 555h-7v-555h-319v1397zM528 -451h-176v105h74v43h-156v262h258v-410z" glyph-name="Ncommaaccent" horiz-adv-x="870" unicode="Ņ"/><glyph d="M0 1397h317l150 -553h6v553h318v-1397h-320l-145 555h-7v-555h-319v1397zM528 -451h-176v105h74v43h-156v262h258v-410z" glyph-name="ncommaaccent" horiz-adv-x="870" unicode="ņ"/><glyph d="M0 1397h317l150 -553h6v553h318v-1397h-320l-145 555h-7v-555h-319v1397zM532 1858h222l-217 -345h-289l-217 345h221l141 -148z" glyph-name="Ncaron" horiz-adv-x="870" unicode="Ň"/><glyph d="M0 1397h317l150 -553h6v553h318v-1397h-320l-145 555h-7v-555h-319v1397zM532 1858h222l-217 -345h-289l-217 345h221l141 -148z" glyph-name="ncaron" horiz-adv-x="870" unicode="ň"/><glyph d="M0 1397h315l150 -553h6v553h317v-1551q0 -104 -73.5 -178t-177.5 -74h-201q-109 0 -184.5 82t-100.5 185l299 145q14 -47 45 -47q33 0 33 31v164l-104 401h-7v-522h-317v1364z" glyph-name="Eng" horiz-adv-x="870" unicode="Ŋ"/><glyph d="M0 1397h315l150 -553h6v553h317v-1551q0 -104 -73.5 -178t-177.5 -74h-201q-109 0 -184.5 82t-100.5 185l299 145q14 -47 45 -47q33 0 33 31v164l-104 401h-7v-522h-317v1364z" glyph-name="eng" horiz-adv-x="870" unicode="ŋ"/><glyph d="M360 1077v-755q0 -25 23 -25h33q23 0 22 25v755q0 23 -22 23h-33q-23 0 -23 -23zM801 1161v-925q0 -104 -75 -179t-179 -75h-295q-104 0 -178 74.5t-74 179.5v925q0 104 73.5 179t178.5 75h295q104 0 179 -75t75 -179zM84 1720h629l2 -211h-631v211z" glyph-name="Omacron" unicode="Ō"/><glyph d="M360 1077v-755q0 -25 23 -25h33q23 0 22 25v755q0 23 -22 23h-33q-23 0 -23 -23zM801 1161v-925q0 -104 -75 -179t-179 -75h-295q-104 0 -178 74.5t-74 179.5v925q0 104 73.5 179t178.5 75h295q104 0 179 -75t75 -179zM84 1720h629l2 -211h-631v211z" glyph-name="omacron" unicode="ō"/><glyph d="M360 1077v-755q0 -25 23 -25h33q23 0 22 25v755q0 23 -22 23h-33q-23 0 -23 -23zM801 1161v-925q0 -104 -75 -179t-179 -75h-295q-104 0 -178 74.5t-74 179.5v925q0 104 73.5 179t178.5 75h295q104 0 179 -75t75 -179zM309 1507h-241q10 59 30.5 175t30.5 173h360 q-88 -172 -180 -348zM709 1507h-242q10 59 30.5 175t30.5 173h361q-88 -172 -180 -348z" glyph-name="Ohungarumlaut" unicode="Ő"/><glyph d="M360 1077v-755q0 -25 23 -25h33q23 0 22 25v755q0 23 -22 23h-33q-23 0 -23 -23zM801 1161v-925q0 -104 -75 -179t-179 -75h-295q-104 0 -178 74.5t-74 179.5v925q0 104 73.5 179t178.5 75h295q104 0 179 -75t75 -179zM309 1507h-241q10 59 30.5 175t30.5 173h360 q-88 -172 -180 -348zM709 1507h-242q10 59 30.5 175t30.5 173h361q-88 -172 -180 -348z" glyph-name="ohungarumlaut" unicode="ő"/><glyph d="M1182 1397v-316h-381v-225h305v-315h-305v-226h381v-315h-928q-104 0 -179 75t-75 179v889q0 104 75 179t179 75h928zM440 338v721q0 23 -22 22h-33q-25 0 -25 -22v-721q0 -23 25 -23h33q22 0 22 23z" glyph-name="OE" horiz-adv-x="1261" unicode="Œ"/><glyph d="M1182 1397v-316h-381v-225h305v-315h-305v-226h381v-315h-928q-104 0 -179 75t-75 179v889q0 104 75 179t179 75h928zM440 338v721q0 23 -22 22h-33q-25 0 -25 -22v-721q0 -23 25 -23h33q22 0 22 23z" glyph-name="oe" horiz-adv-x="1261" unicode="œ"/><glyph d="M801 801q0 -115 -19.5 -145.5t-103.5 -45.5v-8q84 -14 103.5 -45t19.5 -145v-412h-363v420q0 25 -22 24h-33q-23 0 -23 -24v-420h-360v1397h547q104 0 179 -74t75 -178v-344zM360 711h56q23 0 22 22v326q0 23 -22 22h-56v-370zM301 1513l64 345h282l-141 -345h-205z" glyph-name="Racute" unicode="Ŕ"/><glyph d="M801 801q0 -115 -19.5 -145.5t-103.5 -45.5v-8q84 -14 103.5 -45t19.5 -145v-412h-363v420q0 25 -22 24h-33q-23 0 -23 -24v-420h-360v1397h547q104 0 179 -74t75 -178v-344zM360 711h56q23 0 22 22v326q0 23 -22 22h-56v-370zM301 1513l64 345h282l-141 -345h-205z" glyph-name="racute" unicode="ŕ"/><glyph d="M801 801q0 -115 -19.5 -145.5t-103.5 -45.5v-8q84 -14 103.5 -45t19.5 -145v-412h-363v420q0 25 -22 24h-33q-23 0 -23 -24v-420h-360v1397h547q104 0 179 -74t75 -178v-344zM360 711h56q23 0 22 22v326q0 23 -22 22h-56v-370zM532 -453h-176v105h74v43h-156v262h258 v-410z" glyph-name="Rcommaaccent" unicode="Ŗ"/><glyph d="M801 801q0 -115 -19.5 -145.5t-103.5 -45.5v-8q84 -14 103.5 -45t19.5 -145v-412h-363v420q0 25 -22 24h-33q-23 0 -23 -24v-420h-360v1397h547q104 0 179 -74t75 -178v-344zM360 711h56q23 0 22 22v326q0 23 -22 22h-56v-370zM532 -451h-176v105h74v43h-156v262h258 v-410z" glyph-name="rcommaaccent" unicode="ŗ"/><glyph d="M801 801q0 -115 -19.5 -145.5t-103.5 -45.5v-8q84 -14 103.5 -45t19.5 -145v-412h-363v420q0 25 -22 24h-33q-23 0 -23 -24v-420h-360v1397h547q104 0 179 -74t75 -178v-344zM360 711h56q23 0 22 22v326q0 23 -22 22h-56v-370zM539 1858h221l-217 -345h-289l-217 345h221 l141 -148z" glyph-name="Rcaron" unicode="Ř"/><glyph d="M801 801q0 -115 -19.5 -145.5t-103.5 -45.5v-8q84 -14 103.5 -45t19.5 -145v-412h-363v420q0 25 -22 24h-33q-23 0 -23 -24v-420h-360v1397h547q104 0 179 -74t75 -178v-344zM360 711h56q23 0 22 22v326q0 23 -22 22h-56v-370zM539 1858h221l-217 -345h-289l-217 345h221 l141 -148z" glyph-name="rcaron" unicode="ř"/><glyph d="M360 1077v-127q0 -43 27 -59l352 -201q35 -25 48.5 -47t13.5 -65v-342q0 -104 -75 -179t-179 -75h-295q-104 0 -178 74.5t-74 179.5v268h360v-182q0 -25 23 -25h33q23 0 22 25v135q0 43 -26 61l-351 191q-37 23 -49 45t-12 65v342q0 104 73.5 179t178.5 75h295 q104 0 179 -74.5t75 -179.5v-264h-363v180q0 23 -22 23h-33q-23 0 -23 -23zM287 1513l63 345h283l-141 -345h-205z" glyph-name="Sacute" unicode="Ś"/><glyph d="M360 1077v-127q0 -43 27 -59l352 -201q35 -25 48.5 -47t13.5 -65v-342q0 -104 -75 -179t-179 -75h-295q-104 0 -178 74.5t-74 179.5v268h360v-182q0 -25 23 -25h33q23 0 22 25v135q0 43 -26 61l-351 191q-37 23 -49 45t-12 65v342q0 104 73.5 179t178.5 75h295 q104 0 179 -74.5t75 -179.5v-264h-363v180q0 23 -22 23h-33q-23 0 -23 -23zM287 1513l63 345h283l-141 -345h-205z" glyph-name="sacute" unicode="ś"/><glyph d="M360 1077v-127q0 -43 27 -59l352 -201q35 -25 48.5 -47t13.5 -65v-342q0 -104 -75 -179t-179 -75h-295q-104 0 -178 74.5t-74 179.5v268h360v-182q0 -25 23 -25h33q23 0 22 25v135q0 43 -26 61l-351 191q-37 23 -49 45t-12 65v342q0 104 73.5 179t178.5 75h295 q104 0 179 -74.5t75 -179.5v-264h-363v180q0 23 -22 23h-33q-23 0 -23 -23zM545 1858l217 -345h-221l-140 148l-141 -148h-221l217 345h289z" glyph-name="Scircumflex" unicode="Ŝ"/><glyph d="M360 1077v-127q0 -43 27 -59l352 -201q35 -25 48.5 -47t13.5 -65v-342q0 -104 -75 -179t-179 -75h-295q-104 0 -178 74.5t-74 179.5v268h360v-182q0 -25 23 -25h33q23 0 22 25v135q0 43 -26 61l-351 191q-37 23 -49 45t-12 65v342q0 104 73.5 179t178.5 75h295 q104 0 179 -74.5t75 -179.5v-264h-363v180q0 23 -22 23h-33q-23 0 -23 -23zM545 1858l217 -345h-221l-140 148l-141 -148h-221l217 345h289z" glyph-name="scircumflex" unicode="ŝ"/><glyph d="M360 1077v-127q0 -43 27 -59l352 -201q35 -25 48.5 -47t13.5 -65v-342q0 -104 -75 -179t-179 -75h-295q-104 0 -178 74.5t-74 179.5v268h360v-182q0 -25 23 -25h33q23 0 22 25v135q0 43 -26 61l-351 191q-37 23 -49 45t-12 65v342q0 104 73.5 179t178.5 75h295 q104 0 179 -74.5t75 -179.5v-264h-363v180q0 23 -22 23h-33q-23 0 -23 -23zM356 -469v104h74v43h-156v263h258v-410h-176z" glyph-name="Scedilla" unicode="Ş"/><glyph d="M360 1077v-127q0 -43 27 -59l352 -201q35 -25 48.5 -47t13.5 -65v-342q0 -104 -75 -179t-179 -75h-295q-104 0 -178 74.5t-74 179.5v268h360v-182q0 -25 23 -25h33q23 0 22 25v135q0 43 -26 61l-351 191q-37 23 -49 45t-12 65v342q0 104 73.5 179t178.5 75h295 q104 0 179 -74.5t75 -179.5v-264h-363v180q0 23 -22 23h-33q-23 0 -23 -23zM356 -469v104h74v43h-156v263h258v-410h-176z" glyph-name="scedilla" unicode="ş"/><glyph d="M360 1077v-127q0 -43 27 -59l352 -201q35 -25 48.5 -47t13.5 -65v-342q0 -104 -75 -179t-179 -75h-295q-104 0 -178 74.5t-74 179.5v268h360v-182q0 -25 23 -25h33q23 0 22 25v135q0 43 -26 61l-351 191q-37 23 -49 45t-12 65v342q0 104 73.5 179t178.5 75h295 q104 0 179 -74.5t75 -179.5v-264h-363v180q0 23 -22 23h-33q-23 0 -23 -23zM539 1858h221l-217 -345h-289l-217 345h221l141 -148z" glyph-name="Scaron" unicode="Š"/><glyph d="M360 1077v-127q0 -43 27 -59l352 -201q35 -25 48.5 -47t13.5 -65v-342q0 -104 -75 -179t-179 -75h-295q-104 0 -178 74.5t-74 179.5v268h360v-182q0 -25 23 -25h33q23 0 22 25v135q0 43 -26 61l-351 191q-37 23 -49 45t-12 65v342q0 104 73.5 179t178.5 75h295 q104 0 179 -74.5t75 -179.5v-264h-363v180q0 23 -22 23h-33q-23 0 -23 -23zM539 1858h221l-217 -345h-289l-217 345h221l141 -148z" glyph-name="scaron" unicode="š"/><glyph d="M219 1036h-219v361h799v-361h-219v-1036h-361v1036zM532 -451h-176v105h74v43h-156v262h258v-410z" glyph-name="Tcommaaccent" horiz-adv-x="878" unicode="Ţ"/><glyph d="M219 1036h-219v361h799v-361h-219v-1036h-361v1036zM532 -451h-176v105h74v43h-156v262h258v-410z" glyph-name="tcommaaccent" horiz-adv-x="878" unicode="ţ"/><glyph d="M219 1036h-219v361h799v-361h-219v-1036h-361v1036zM541 1858h221l-217 -345h-289l-217 345h221l141 -148z" glyph-name="Tcaron" horiz-adv-x="878" unicode="Ť"/><glyph d="M219 0v1036h-219v361h799v-361h-219v-1036h-361zM1141 987h-176v105h73v43h-155v262h258v-410z" glyph-name="tcaron" horiz-adv-x="1220" unicode="ť"/><glyph d="M219 1036h-219v361h799v-361h-219v-80h137v-360h-137v-596h-361v596h-137v360h137v80z" glyph-name="Tbar" horiz-adv-x="878" unicode="Ŧ"/><glyph d="M219 1036h-219v361h799v-361h-219v-80h137v-360h-137v-596h-361v596h-137v360h137v80z" glyph-name="tbar" horiz-adv-x="878" unicode="ŧ"/><glyph d="M438 324v1073h363v-1157q0 -104 -75 -179t-179 -75h-295q-104 0 -178 74.5t-74 179.5v1157h360v-1073q0 -23 23 -23h33q22 0 22 23zM-16 1513l266 345l227 -54l39 54h277l-267 -345l-225 52l-41 -52h-276z" glyph-name="Utilde" unicode="Ũ"/><glyph d="M438 324v1073h363v-1157q0 -104 -75 -179t-179 -75h-295q-104 0 -178 74.5t-74 179.5v1157h360v-1073q0 -23 23 -23h33q22 0 22 23zM-16 1513l266 345l227 -54l39 54h277l-267 -345l-225 52l-41 -52h-276z" glyph-name="utilde" unicode="ũ"/><glyph d="M438 324v1073h363v-1157q0 -104 -75 -179t-179 -75h-295q-104 0 -178 74.5t-74 179.5v1157h360v-1073q0 -23 23 -23h33q22 0 22 23zM84 1720h629l2 -211h-631v211z" glyph-name="Umacron" unicode="Ū"/><glyph d="M438 324v1073h363v-1157q0 -104 -75 -179t-179 -75h-295q-104 0 -178 74.5t-74 179.5v1157h360v-1073q0 -23 23 -23h33q22 0 22 23zM84 1720h629l2 -211h-631v211z" glyph-name="umacron" unicode="ū"/><glyph d="M438 324v1073h363v-1157q0 -104 -75 -179t-179 -75h-295q-104 0 -178 74.5t-74 179.5v1157h360v-1073q0 -23 23 -23h33q22 0 22 23zM289 1858v-134h209v134h209l2 -345h-629v345h209z" glyph-name="Ubreve" unicode="Ŭ"/><glyph d="M438 324v1073h363v-1157q0 -104 -75 -179t-179 -75h-295q-104 0 -178 74.5t-74 179.5v1157h360v-1073q0 -23 23 -23h33q22 0 22 23zM289 1858v-134h209v134h209l2 -345h-629v345h209z" glyph-name="ubreve" unicode="ŭ"/><glyph d="M438 324v1073h363v-1157q0 -104 -75 -179t-179 -75h-295q-104 0 -178 74.5t-74 179.5v1157h360v-1073q0 -23 23 -23h33q22 0 22 23zM399 1923q102 0 176 -72.5t74 -177.5q0 -102 -73.5 -176t-176.5 -74q-104 0 -178 74t-74 176q0 104 74 177t178 73zM399 1761 q-37 0 -62.5 -25.5t-25.5 -62.5t25.5 -62.5t62.5 -25.5q35 0 60.5 25.5t25.5 62.5t-25.5 62.5t-60.5 25.5z" glyph-name="Uring" unicode="Ů"/><glyph d="M438 324v1073h363v-1157q0 -104 -75 -179t-179 -75h-295q-104 0 -178 74.5t-74 179.5v1157h360v-1073q0 -23 23 -23h33q22 0 22 23zM399 1923q102 0 176 -72.5t74 -177.5q0 -102 -73.5 -176t-176.5 -74q-104 0 -178 74t-74 176q0 104 74 177t178 73zM399 1761 q-37 0 -62.5 -25.5t-25.5 -62.5t25.5 -62.5t62.5 -25.5q35 0 60.5 25.5t25.5 62.5t-25.5 62.5t-60.5 25.5z" glyph-name="uring" unicode="ů"/><glyph d="M438 324v1073h363v-1157q0 -104 -75 -179t-179 -75h-295q-104 0 -178 74.5t-74 179.5v1157h360v-1073q0 -23 23 -23h33q22 0 22 23zM309 1507h-241q10 59 30.5 175t30.5 173h360q-88 -172 -180 -348zM709 1507h-242q10 59 30.5 175t30.5 173h361q-88 -172 -180 -348z" glyph-name="Uhungarumlaut" unicode="Ű"/><glyph d="M438 324v1073h363v-1157q0 -104 -75 -179t-179 -75h-295q-104 0 -178 74.5t-74 179.5v1157h360v-1073q0 -23 23 -23h33q22 0 22 23zM309 1507h-241q10 59 30.5 175t30.5 173h360q-88 -172 -180 -348zM709 1507h-242q10 59 30.5 175t30.5 173h361q-88 -172 -180 -348z" glyph-name="uhungarumlaut" unicode="ű"/><glyph d="M0 236v1161h360v-1075q0 -25 23 -25h33q23 0 22 25v1075h363v-1161q0 -104 -75 -179t-179 -75h-64v-226h-237q-33 0 -33 -34.5t33 -34.5h237v-166h-237q-94 0 -147.5 62.5t-53.5 138t53.5 138t147.5 62.5h69v60h-63q-104 0 -178 75t-74 179z" glyph-name="Uogonek" unicode="Ų"/><glyph d="M0 236v1161h360v-1075q0 -25 23 -25h33q23 0 22 25v1075h363v-1161q0 -104 -75 -179t-179 -75h-64v-226h-237q-33 0 -33 -34.5t33 -34.5h237v-166h-237q-94 0 -147.5 62.5t-53.5 138t53.5 138t147.5 62.5h69v60h-63q-104 0 -178 75t-74 179z" glyph-name="uogonek" unicode="ų"/><glyph d="M358 1397v-783h7l116 783h310l114 -783h6v783h361l-60 -1397h-469l-104 616h-6l-107 -616h-469l-57 1397h358zM995 1513h-221l-139 148l-141 -148h-222l217 345h289z" glyph-name="Wcircumflex" horiz-adv-x="1351" unicode="Ŵ"/><glyph d="M358 1397v-783h7l116 783h310l114 -783h6v783h361l-60 -1397h-469l-104 616h-6l-107 -616h-469l-57 1397h358zM995 1513h-221l-139 148l-141 -148h-222l217 345h289z" glyph-name="wcircumflex" horiz-adv-x="1351" unicode="ŵ"/><glyph d="M258 430l-270 967h368l80 -520h6l80 520h369l-273 -967v-430h-360v430zM803 1513h-221l-140 148l-141 -148h-221l217 345h289z" glyph-name="Ycircumflex" horiz-adv-x="962" unicode="Ŷ"/><glyph d="M258 430l-270 967h368l80 -520h6l80 520h369l-273 -967v-430h-360v430zM803 1513h-221l-140 148l-141 -148h-221l217 345h289z" glyph-name="ycircumflex" horiz-adv-x="962" unicode="ŷ"/><glyph d="M258 430l-270 967h368l80 -520h6l80 520h369l-273 -967v-430h-360v430zM145 1767h258v-258h-258v258zM487 1767h258v-258h-258v258z" glyph-name="Ydieresis" horiz-adv-x="962" unicode="Ÿ"/><glyph d="M403 360h359v-360h-762v360l356 676h-356v361h762v-361zM276 1513l64 345h283l-142 -345h-205z" glyph-name="Zacute" horiz-adv-x="843" unicode="Ź"/><glyph d="M403 360h359v-360h-762v360l356 676h-356v361h762v-361zM276 1513l64 345h283l-142 -345h-205z" glyph-name="zacute" horiz-adv-x="843" unicode="ź"/><glyph d="M403 360h359v-360h-762v360l356 676h-356v361h762v-361zM254 1767h258v-258h-258v258z" glyph-name="Zdotaccent" horiz-adv-x="843" unicode="Ż"/><glyph d="M403 360h359v-360h-762v360l356 676h-356v361h762v-361zM254 1767h258v-258h-258v258z" glyph-name="zdotaccent" horiz-adv-x="843" unicode="ż"/><glyph d="M403 360h359v-360h-762v360l356 676h-356v361h762v-361zM520 1858h221l-217 -345h-288l-218 345h222l141 -148z" glyph-name="Zcaron" horiz-adv-x="843" unicode="Ž"/><glyph d="M403 360h359v-360h-762v360l356 676h-356v361h762v-361zM520 1858h221l-217 -345h-288l-218 345h222l141 -148z" glyph-name="zcaron" horiz-adv-x="843" unicode="ž"/><glyph d="M406 1397h256v-316h-125q-25 0 -25 -22v-47h150v-316h-150v-442q0 -104 -73.5 -179t-178.5 -75h-260v315h129q23 0 23 23v358h-148v316h148v131q0 104 75 179t179 75z" glyph-name="florin" horiz-adv-x="741" unicode="ƒ"/><glyph d="M360 1077v-127q0 -43 27 -59l352 -201q35 -25 48.5 -47t13.5 -65v-342q0 -104 -75 -179t-179 -75h-295q-104 0 -178 74.5t-74 179.5v268h360v-182q0 -25 23 -25h33q23 0 22 25v135q0 43 -26 61l-351 191q-37 23 -49 45t-12 65v342q0 104 73.5 179t178.5 75h295 q104 0 179 -74.5t75 -179.5v-264h-363v180q0 23 -22 23h-33q-23 0 -23 -23zM356 -469v104h74v43h-156v263h258v-410h-176z" glyph-name="Scommaaccent" unicode="Ș"/><glyph d="M360 1077v-127q0 -43 27 -59l352 -201q35 -25 48.5 -47t13.5 -65v-342q0 -104 -75 -179t-179 -75h-295q-104 0 -178 74.5t-74 179.5v268h360v-182q0 -25 23 -25h33q23 0 22 25v135q0 43 -26 61l-351 191q-37 23 -49 45t-12 65v342q0 104 73.5 179t178.5 75h295 q104 0 179 -74.5t75 -179.5v-264h-363v180q0 23 -22 23h-33q-23 0 -23 -23zM356 -469v104h74v43h-156v263h258v-410h-176z" glyph-name="scommaaccent" unicode="ș"/><glyph d="M723 1513h-221l-140 148l-141 -148h-221l217 345h289z" glyph-name="circumflex" horiz-adv-x="802" unicode="ˆ"/><glyph d="M502 1858h221l-217 -345h-289l-217 345h221l141 -148z" glyph-name="caron" horiz-adv-x="802" unicode="ˇ"/><glyph d="M209 1858v-134h209v134h209l2 -345h-629v345h209z" glyph-name="breve" horiz-adv-x="708" unicode="˘"/><glyph d="M0 1767h258v-258h-258v258z" glyph-name="dotaccent" horiz-adv-x="337" unicode="˙"/><glyph d="M250 1733q102 0 176 -73t74 -177q0 -102 -74 -176t-176 -74q-104 0 -177 73.5t-73 176.5q0 104 73 177t177 73zM250 1571q-37 0 -62.5 -25.5t-25.5 -62.5t25.5 -62.5t62.5 -25.5q35 0 61.5 25.5t26.5 62.5t-26.5 62.5t-61.5 25.5z" glyph-name="ring" horiz-adv-x="579" unicode="˚"/><glyph d="M270 0h166v-227h-237q-33 0 -33 -34t33 -34h237v-166h-237q-94 0 -147.5 62.5t-53.5 138.5t53 138.5t148 62.5h71v59z" glyph-name="ogonek" horiz-adv-x="516" unicode="˛"/><glyph d="M0 1513l266 345l228 -54l38 54h277l-266 -345l-226 52l-41 -52h-276z" glyph-name="tilde" horiz-adv-x="888" unicode="˜"/><glyph d="M242 1507h-242q10 59 30.5 175t30.5 173h361q-88 -172 -180 -348zM641 1507h-242q10 59 31 175t31 173h360q-88 -172 -180 -348z" glyph-name="hungarumlaut" horiz-adv-x="901" unicode="˝"/><glyph d="M410 297h317l-160 541zM0 0l422 1397h293l420 -1397h-1135z" glyph-name="Delta" horiz-adv-x="1214" unicode="Δ"/><glyph d="M410 297h317l-160 541zM0 0l422 1397h293l420 -1397h-1135z" glyph-name="Delta" horiz-adv-x="1214" unicode="∆"/><glyph d="M360 -4h-360v360h184v11q-80 23 -132 90t-52 153v529q0 104 73.5 179t178.5 75h295q104 0 179 -75t75 -179v-529q0 -84 -51.5 -154.5t-133.5 -93.5v-6h185v-360h-363v1059q0 23 -22 22h-33q-23 0 -23 -22v-1059z" glyph-name="Omega" unicode="Ω"/><glyph d="M360 -4h-360v360h184v11q-80 23 -132 90t-52 153v529q0 104 73.5 179t178.5 75h295q104 0 179 -75t75 -179v-529q0 -84 -51.5 -154.5t-133.5 -93.5v-6h185v-360h-363v1059q0 23 -22 22h-33q-23 0 -23 -22v-1059z" glyph-name="Omega" unicode="Ω"/><glyph d="M104 858h-104v172h582v-172h-105v-491h-172v491h-31v-491h-170v491z" glyph-name="pi" horiz-adv-x="661" unicode="π"/><glyph d="M0 1397h360v-1397h-360v1397zM-121 1767h258v-258h-258v258zM221 1767h258v-258h-258v258z" glyph-name="afii10056" horiz-adv-x="440" unicode="Ї"/><glyph d="M604 295l-229 -295h-375l545 698l-545 699h375l229 -295v295h301v-295l230 295h376l-544 -699l544 -698h-376l-230 295v-295h-301v295z" glyph-name="afii10024" horiz-adv-x="1591" unicode="Ж"/><glyph d="M0 0v1397h360v-1037h95v1037h360v-1037h94v1037h361v-1397h-1270z" glyph-name="afii10042" horiz-adv-x="1349" unicode="Ш"/><glyph d="M604 295l-229 -295h-375l545 698l-545 699h375l229 -295v295h301v-295l230 295h376l-544 -699l544 -698h-376l-230 295v-295h-301v295z" glyph-name="afii10072" horiz-adv-x="1591" unicode="ж"/><glyph d="M0 0v1397h360v-1037h95v1037h360v-1037h94v1037h361v-1397h-1270z" glyph-name="afii10090" horiz-adv-x="1349" unicode="ш"/><glyph d="M0 1397h360v-1397h-360v1397zM-121 1767h258v-258h-258v258zM221 1767h258v-258h-258v258z" glyph-name="afii10104" horiz-adv-x="440" unicode="ї"/><glyph d="M360 555v-240h56q23 0 22 23v194q0 23 -22 23h-56zM801 969q-2 -55 -4 -83t-12.5 -72t-37 -71.5t-69.5 -42.5v-4q43 -14 69.5 -41.5t37 -71.5t12.5 -72t4 -83v-174q0 -104 -75 -179t-179 -75h-547v1397h547q104 0 179 -75t75 -179v-174zM360 1081v-239h56q23 0 22 22v195 q0 23 -22 22h-56zM272 1767h258v-258h-258v258z" glyph-name="uni1E02" horiz-adv-x="878" unicode="Ḃ"/><glyph d="M360 555v-240h56q23 0 22 23v194q0 23 -22 23h-56zM801 969q-2 -55 -4 -83t-12.5 -72t-37 -71.5t-69.5 -42.5v-4q43 -14 69.5 -41.5t37 -71.5t12.5 -72t4 -83v-174q0 -104 -75 -179t-179 -75h-547v1397h547q104 0 179 -75t75 -179v-174zM360 1081v-239h56q23 0 22 22v195 q0 23 -22 22h-56zM272 1767h258v-258h-258v258z" glyph-name="uni1E03" horiz-adv-x="878" unicode="ḃ"/><glyph d="M547 1397q104 0 178 -75t74 -179v-889q0 -104 -74 -179t-178 -75h-547v1397h547zM360 315h56q23 0 22 23v721q0 23 -22 22h-56v-766zM270 1767h258v-258h-258v258z" glyph-name="uni1E0A" unicode="Ḋ"/><glyph d="M547 1397q104 0 178 -75t74 -179v-889q0 -104 -74 -179t-178 -75h-547v1397h547zM360 315h56q23 0 22 23v721q0 23 -22 22h-56v-766zM270 1767h258v-258h-258v258z" glyph-name="uni1E0B" unicode="ḋ"/><glyph d="M0 0v1397h694v-316h-334v-284h258v-316h-258v-481h-360zM215 1767h258v-258h-258v258z" glyph-name="uni1E1E" horiz-adv-x="774" unicode="Ḟ"/><glyph d="M0 0v1397h694v-316h-334v-284h258v-316h-258v-481h-360zM215 1767h258v-258h-258v258z" glyph-name="uni1E1F" horiz-adv-x="774" unicode="ḟ"/><glyph d="M565 707h6l97 690h469v-1397h-361v854h-6l-84 -854h-235l-84 854h-7v-854h-360v1397h469zM444 1767h258v-258h-258v258z" glyph-name="uni1E40" horiz-adv-x="1216" unicode="Ṁ"/><glyph d="M565 707h6l97 690h469v-1397h-361v854h-6l-84 -854h-235l-84 854h-7v-854h-360v1397h469zM444 1767h258v-258h-258v258z" glyph-name="uni1E41" horiz-adv-x="1216" unicode="ṁ"/><glyph d="M516 1397q104 0 179 -75t75 -179v-451q0 -104 -74.5 -178t-179.5 -74h-172v-440h-344v1397h516zM344 756h57q23 0 23 22v281q0 23 -23 22h-57v-325zM256 1767h258v-258h-258v258z" glyph-name="uni1E56" horiz-adv-x="849" unicode="Ṗ"/><glyph d="M516 1397q104 0 179 -75t75 -179v-451q0 -104 -74.5 -178t-179.5 -74h-172v-440h-344v1397h516zM344 756h57q23 0 23 22v281q0 23 -23 22h-57v-325zM256 1767h258v-258h-258v258z" glyph-name="uni1E57" horiz-adv-x="849" unicode="ṗ"/><glyph d="M360 1077v-127q0 -43 27 -59l352 -201q35 -25 48.5 -47t13.5 -65v-342q0 -104 -75 -179t-179 -75h-295q-104 0 -178 74.5t-74 179.5v268h360v-182q0 -25 23 -25h33q23 0 22 25v135q0 43 -26 61l-351 191q-37 23 -49 45t-12 65v342q0 104 73.5 179t178.5 75h295 q104 0 179 -74.5t75 -179.5v-264h-363v180q0 23 -22 23h-33q-23 0 -23 -23zM274 1767h258v-258h-258v258z" glyph-name="uni1E60" unicode="Ṡ"/><glyph d="M360 1077v-127q0 -43 27 -59l352 -201q35 -25 48.5 -47t13.5 -65v-342q0 -104 -75 -179t-179 -75h-295q-104 0 -178 74.5t-74 179.5v268h360v-182q0 -25 23 -25h33q23 0 22 25v135q0 43 -26 61l-351 191q-37 23 -49 45t-12 65v342q0 104 73.5 179t178.5 75h295 q104 0 179 -74.5t75 -179.5v-264h-363v180q0 23 -22 23h-33q-23 0 -23 -23zM274 1767h258v-258h-258v258z" glyph-name="uni1E61" unicode="ṡ"/><glyph d="M219 1036h-219v361h799v-361h-219v-1036h-361v1036zM270 1767h258v-258h-258v258z" glyph-name="uni1E6A" horiz-adv-x="878" unicode="Ṫ"/><glyph d="M219 1036h-219v361h799v-361h-219v-1036h-361v1036zM270 1767h258v-258h-258v258z" glyph-name="uni1E6B" horiz-adv-x="878" unicode="ṫ"/><glyph d="M358 1397v-783h7l116 783h310l114 -783h6v783h361l-60 -1397h-469l-104 616h-6l-107 -616h-469l-57 1397h358zM739 1513h-204l-142 345h283z" glyph-name="Wgrave" horiz-adv-x="1351" unicode="Ẁ"/><glyph d="M358 1397v-783h7l116 783h310l114 -783h6v783h361l-60 -1397h-469l-104 616h-6l-107 -616h-469l-57 1397h358zM739 1513h-204l-142 345h283z" glyph-name="wgrave" horiz-adv-x="1351" unicode="ẁ"/><glyph d="M532 1513l64 345h283l-142 -345h-205zM913 1397h359l-58 -1397h-469l-106 616h-6l-105 -616h-469l-59 1397h360v-783h7l114 783h310l116 -783h6v783z" glyph-name="Wacute" horiz-adv-x="1351" unicode="Ẃ"/><glyph d="M532 1513l64 345h283l-142 -345h-205zM913 1397h359l-58 -1397h-469l-106 616h-6l-105 -616h-469l-59 1397h360v-783h7l114 783h310l116 -783h6v783z" glyph-name="wacute" horiz-adv-x="1351" unicode="ẃ"/><glyph d="M358 1397v-783h7l116 783h310l114 -783h6v783h361l-60 -1397h-469l-104 616h-6l-107 -616h-469l-57 1397h358zM342 1767h258v-258h-258v258zM684 1767h258v-258h-258v258z" glyph-name="Wdieresis" horiz-adv-x="1351" unicode="Ẅ"/><glyph d="M358 1397v-783h7l116 783h310l114 -783h6v783h361l-60 -1397h-469l-104 616h-6l-107 -616h-469l-57 1397h358zM342 1767h258v-258h-258v258zM684 1767h258v-258h-258v258z" glyph-name="wdieresis" horiz-adv-x="1351" unicode="ẅ"/><glyph d="M258 430l-270 967h368l80 -520h6l80 520h369l-273 -967v-430h-360v430zM539 1513h-205l-141 345h282z" glyph-name="Ygrave" horiz-adv-x="962" unicode="Ỳ"/><glyph d="M258 430l-270 967h368l80 -520h6l80 520h369l-273 -967v-430h-360v430zM539 1513h-205l-141 345h282z" glyph-name="ygrave" horiz-adv-x="962" unicode="ỳ"/><glyph d="M559 848v-299h-559v299h559z" glyph-name="endash" horiz-adv-x="638" unicode="–"/><glyph d="M676 848v-299h-676v299h676z" glyph-name="emdash" horiz-adv-x="755" unicode="—"/><glyph d="M143 793h174q10 0 11 8v14q0 10 -11 10h-174q-8 0 -8 -10v-14q0 -8 8 -8zM487 981h308q27 0 44 -18.5t17 -42.5v-222q0 -25 -17.5 -43t-43.5 -18h-308q-25 0 -42 18.5t-17 42.5q0 -25 -17.5 -43t-43.5 -18h-308q-25 0 -42 18.5t-17 42.5v222q0 25 17.5 43t41.5 18h308 q27 0 44 -18.5t17 -42.5q0 25 17 43t42 18zM539 793h172q10 0 10 8v14q0 10 -10 10h-172q-10 0 -11 -10v-14q1 -8 11 -8z" glyph-name="afii00208" horiz-adv-x="935" unicode="―"/><glyph d="M0 1397h246v-146h-101v-61h215v-361h-360v568z" glyph-name="quoteleft" horiz-adv-x="440" unicode="‘"/><glyph d="M360 829h-245v146h100v61h-215v361h360v-568z" glyph-name="quoteright" horiz-adv-x="440" unicode="’"/><glyph d="M115 -207v146h100v61h-215v360h360v-567h-245z" glyph-name="quotesinglbase" horiz-adv-x="440" unicode="‚"/><glyph d="M438 1397h246v-146h-100v-61h215v-361h-361v568zM0 1397h246v-146h-101v-61h215v-361h-360v568z" glyph-name="quotedblleft" horiz-adv-x="878" unicode="“"/><glyph d="M360 829h-245v146h100v61h-215v361h360v-568zM799 829h-246v146h100v61h-215v361h361v-568z" glyph-name="quotedblright" horiz-adv-x="878" unicode="”"/><glyph d="M360 -207h-245v146h100v61h-215v360h360v-567zM780 -207h-245v146h100v61h-215v360h360v-567z" glyph-name="quotedblbase" horiz-adv-x="860" unicode="„"/><glyph d="M217 1397h361v-203h215v-360h-215v-834h-361v834h-217v360h217v203z" glyph-name="dagger" horiz-adv-x="872" unicode="†"/><glyph d="M215 1397h360v-203h216v-360h-216v-271h216v-360h-216v-203h-360v203h-215v360h215v271h-215v360h215v203z" glyph-name="daggerdbl" horiz-adv-x="870" unicode="‡"/><glyph d="M166 864q68 0 116 -48t48 -117.5t-48.5 -118t-115.5 -48.5q-70 0 -118 48.5t-48 118t48 117.5t118 48z" glyph-name="bullet" horiz-adv-x="409" unicode="•"/><glyph d="M0 0v360h360v-360h-360zM420 0v360h360v-360h-360zM838 0v360h360v-360h-360z" glyph-name="ellipsis" horiz-adv-x="1277" unicode="…"/><glyph d="M461 0l284 1397h299l-282 -1397h-301zM569 1184v-479q0 -88 -62.5 -150.5t-150.5 -62.5h-145q-88 0 -149.5 62t-61.5 151v479q0 88 61.5 150.5t149.5 62.5h145q88 0 150.5 -62.5t62.5 -150.5zM252 1112v-336q0 -18 18 -18h29q18 0 18 18v336q0 20 -18 21h-29 q-18 -1 -18 -21zM1507 692v-479q0 -88 -62.5 -150.5t-150.5 -62.5h-145q-88 0 -149.5 62.5t-61.5 150.5v479q0 88 61.5 150.5t149.5 62.5h145q88 0 150.5 -62.5t62.5 -150.5zM1190 621v-336q0 -18 18 -19h29q18 0 18 19v336q0 18 -18 18h-29q-18 0 -18 -18zM2144 692v-479 q0 -88 -62.5 -150.5t-150.5 -62.5h-145q-88 0 -149.5 62.5t-61.5 150.5v479q0 88 61.5 150.5t149.5 62.5h145q88 0 150.5 -62.5t62.5 -150.5zM1827 621v-336q0 -18 18 -19h29q18 0 18 19v336q0 18 -18 18h-29q-18 0 -18 -18z" glyph-name="perthousand" horiz-adv-x="2224" unicode="‰"/><glyph d="M922 1397l-545 -699l545 -698h-377l-545 698l545 699h377z" glyph-name="guilsinglleft" horiz-adv-x="1001" unicode="‹"/><glyph d="M0 1397h377l545 -699l-545 -698h-377l545 698z" glyph-name="guilsinglright" horiz-adv-x="1001" unicode="›"/><glyph d="M285 1397h299l-285 -1397h-299z" glyph-name="fraction" horiz-adv-x="663" unicode="⁄"/><glyph d="M0 563v113h94v45h-94v113h94v327q0 104 74 179t178 75h295q104 0 179 -74.5t75 -179.5v-264h-363v180q0 23 -22 23h-33q-23 0 -22 -23v-243h440v-113h-440v-45h440v-113h-440v-241q0 -25 22 -25h33q23 0 22 25v182h363v-268q0 -104 -75 -179t-179 -75h-295 q-104 0 -178 74.5t-74 179.5v327h-94z" glyph-name="Euro" horiz-adv-x="974" unicode="€"/><glyph d="M1495 252v-252h-569v252h569zM0 1397h315l150 -553h6v553h317v-1397h-319l-145 555h-7v-555h-317v1397zM1495 1184v-600q0 -88 -61.5 -149.5t-149.5 -61.5h-145q-88 0 -150.5 61.5t-62.5 149.5v600q0 88 62.5 150.5t150.5 62.5h145q88 0 149.5 -62.5t61.5 -150.5z M1178 1112v-457q0 -18 18 -18h29q18 0 18 18v457q0 20 -18 21h-29q-18 -1 -18 -21z" glyph-name="afii61352" horiz-adv-x="1574" unicode="№"/><glyph d="M104 1225h-104v172h379v-172h-105v-492h-170v492zM719 1069h4l45 328h223v-664h-172v406h-2l-41 -406h-110l-41 406h-2v-406h-172v664h223z" glyph-name="trademark" horiz-adv-x="1071" unicode="™"/><glyph d="M532 1397h160l-284 -1397h-160zM158 1114l-43 -86l-115 59l164 310h153v-619h-159v336zM770 381q10 0 10 10v94q0 10 -10 11h-14q-10 0 -11 -11v-94q0 -10 11 -10h14zM940 432q-2 -33 -3 -48t-13.5 -35.5t-36.5 -29.5v-2q53 -20 53 -112v-2v-2v-2v-86q0 -47 -34 -80 t-79 -33h-131q-45 0 -77.5 33t-32.5 80v86v2v2v2q0 94 53 112v2q-53 18 -53 113v92q0 45 32.5 78t77.5 33h131q47 0 80 -33t33 -78v-92zM770 139q10 0 10 11v94q0 10 -10 10h-14q-10 0 -11 -10v-94q0 -10 11 -11h14z" glyph-name="oneeighth" horiz-adv-x="1019" unicode="⅛"/><glyph d="M571 1397h160l-285 -1397h-159zM356 881q0 -45 -32.5 -78t-79.5 -33h-133q-45 0 -78 33t-33 78v88h160v-49q0 -10 10 -11h14q10 0 11 11v98q0 10 -11 10h-14q-10 0 -10 -10v-17h-160v396h356v-160h-196v-78q16 8 43 8h41q47 0 79.5 -32.5t32.5 -77.5v-176zM809 381 q10 0 10 10v94q0 10 -10 11h-14q-10 0 -11 -11v-94q0 -10 11 -10h14zM979 432q-2 -33 -3 -48t-13.5 -35.5t-36.5 -29.5v-2q53 -20 53 -112v-2v-2v-2v-86q0 -47 -33 -80t-80 -33h-131q-47 0 -79.5 33t-32.5 80v86v2v2l2 2q0 94 53 112v2q-53 18 -53 113l-2 92q0 45 32.5 78 t79.5 33h131q47 0 80 -33t33 -78v-92zM809 139q10 0 10 11v94q0 10 -10 10h-14q-10 0 -11 -10v-94q0 -10 11 -11h14z" glyph-name="fiveeighths" horiz-adv-x="1058" unicode="⅝"/><glyph d="M512 1397h160l-285 -1397h-160zM12 735l150 482h-162v139h365l-193 -621h-160zM729 381q10 0 10 10v94q0 10 -10 11h-16q-10 0 -11 -11v-94q0 -10 11 -10h16zM899 432q-2 -33 -4 -48t-14.5 -35.5t-36.5 -29.5v-2q55 -20 55 -112v-2v-2v-2v-86q0 -47 -34 -80t-79 -33h-131 q-45 0 -78.5 33t-33.5 80v86v2v2v2q0 92 55 112v2q-25 8 -37 29t-14 36t-4 48v92q0 45 32.5 78t79.5 33h131q47 0 80 -33t33 -78v-92zM729 139q10 0 10 11v94q0 10 -10 10h-16q-10 0 -11 -10v-94q0 -10 11 -11h16z" glyph-name="seveneighths" horiz-adv-x="978" unicode="⅞"/><glyph d="M1096 752v-107h-889l182 -184l-76 -76l-313 313l313 314l76 -76l-182 -184h889z" glyph-name="arrowleft" horiz-adv-x="1175" unicode="←"/><glyph d="M367 0h-107v889l-184 -182l-76 75l313 314l314 -314l-76 -75l-184 182v-889z" glyph-name="arrowup" horiz-adv-x="706" unicode="↑"/><glyph d="M0 752h889l-182 184l75 76l314 -314l-314 -313l-75 76l182 184h-889v107z" glyph-name="arrowright" horiz-adv-x="1175" unicode="→"/><glyph d="M367 1096v-889l184 182l76 -76l-314 -313l-313 313l76 76l184 -182v889h107z" glyph-name="arrowdown" horiz-adv-x="706" unicode="↓"/><glyph d="M207 752h682l-182 184l75 76l314 -314l-314 -313l-75 76l182 184h-682l182 -184l-76 -76l-313 313l313 314l76 -76z" glyph-name="arrowboth" horiz-adv-x="1175" unicode="↔"/><glyph d="M367 889v-682l184 182l76 -76l-314 -313l-313 313l76 76l184 -182v682l-184 -182l-76 75l313 314l314 -314l-76 -75z" glyph-name="arrowupdn" horiz-adv-x="706" unicode="↕"/><glyph d="M207 367h602v602h106v-709h-708l182 -184l-76 -76l-313 313l313 314l76 -76z" glyph-name="carriagereturn" horiz-adv-x="995" unicode="↵"/><glyph d="M0 1143q0 104 73.5 179t178.5 75h295q104 0 178 -75t74 -179v-889q0 -104 -74 -179t-178 -75h-295q-104 0 -178 75t-74 179v352q0 104 73.5 178t178.5 74h186v201q0 23 -22 22h-33q-23 0 -23 -22v-121h-360v205zM438 520q0 23 -22 23h-33q-23 0 -23 -23v-182 q0 -23 23 -23h33q23 0 22 23v182z" glyph-name="partialdiff" horiz-adv-x="878" unicode="∂"/><glyph d="M799 1397v-1397h-361v1081h-78v-1081h-360v1397h799z" glyph-name="product" horiz-adv-x="878" unicode="∏"/><glyph d="M0 1397h739v-316h-379l306 -383l-306 -383h379v-315h-739v315l303 383l-303 383v316z" glyph-name="summation" horiz-adv-x="819" unicode="∑"/><glyph d="M559 848v-299h-559v299h559z" glyph-name="minus" horiz-adv-x="638" unicode="−"/><glyph d="M1423 1397l-637 -1397h-294l-62 436l-29 -26h-401l414 520h245l54 -377l385 844h325z" glyph-name="radical" horiz-adv-x="1503" unicode="√"/><glyph d="M143 793h174q10 0 11 8v14q0 10 -11 10h-174q-8 0 -8 -10v-14q0 -8 8 -8zM487 981h308q27 0 44 -18.5t17 -42.5v-222q0 -25 -17.5 -43t-43.5 -18h-308q-25 0 -42 18.5t-17 42.5q0 -25 -17.5 -43t-43.5 -18h-308q-25 0 -42 18.5t-17 42.5v222q0 25 17.5 43t41.5 18h308 q27 0 44 -18.5t17 -42.5q0 25 17 43t42 18zM539 793h172q10 0 10 8v14q0 10 -10 10h-172q-10 0 -11 -10v-14q1 -8 11 -8z" glyph-name="infinity" horiz-adv-x="935" unicode="∞"/><glyph d="M281 315v1082h643v-316h-283v-1081h-641v315h281z" glyph-name="integral" horiz-adv-x="1003" unicode="∫"/><glyph d="M0 694v310q98 80 170 91t117 -17.5t89 -58.5t115.5 -18.5t170.5 91.5v-310q-72 -57 -130.5 -78.5t-96.5 -13.5t-71.5 28.5t-66.5 41t-71 29t-96 -13.5t-130 -81zM0 301v309q98 80 170 91.5t117 -17.5t89 -58.5t115.5 -18.5t170.5 91v-309q-72 -57 -130.5 -78.5 t-96.5 -13.5t-71.5 28.5t-66.5 41t-71 28.5t-96 -13.5t-130 -80.5z" glyph-name="approxequal" horiz-adv-x="741" unicode="≈"/><glyph d="M559 647v-266h-264l-78 -381h-160l78 381h-135v266h188l21 105h-209v264h264l78 381h160l-78 -381h135v-264h-190l-21 -105h211z" glyph-name="notequal" horiz-adv-x="638" unicode="≠"/><glyph d="M815 332v-332h-815v332h815zM0 1040l815 293v-332l-426 -122l426 -123v-332l-815 293v323z" glyph-name="lessequal" horiz-adv-x="894" unicode="≤"/><glyph d="M815 1040v-323l-815 -293v332l426 123l-426 122v332zM0 332h815v-332h-815v332z" glyph-name="greaterequal" horiz-adv-x="894" unicode="≥"/><glyph d="M418 1055l-121 -301l121 -301l123 301zM557 1507l281 -753l-281 -754h-276l-281 754l281 753h276z" glyph-name="lozenge" horiz-adv-x="917" unicode="◊"/><glyph d="M1055 1397v-1397h-361v1081h-334v-284h258v-316h-258v-481h-360v1397h1055z" glyph-name="uniFB01" horiz-adv-x="1134" unicode="ﬁ"/><glyph d="M1055 1397v-1082h327v-315h-688v1081h-334v-284h258v-316h-258v-481h-360v1397h1055z" glyph-name="uniFB02" horiz-adv-x="1462" unicode="ﬂ"/><glyph glyph-name="glyph394" horiz-adv-x="204"/><glyph d="M0 752h889l-182 184l75 76l314 -314l-314 -313l-75 76l182 184h-889v107z" glyph-name="glyph395" horiz-adv-x="1175"/></font>
</defs>
</svg>
